<svg width="31" height="34" viewBox="0 0 31 34" fill="none" xmlns="http://www.w3.org/2000/svg">
<path fill-rule="evenodd" clip-rule="evenodd" d="M13.0284 20.7873C11.806 19.5051 10.1536 18.8287 8.19444 18.8287C4.41243 18.8287 1.33564 21.905 1.33564 25.6859C1.33564 29.4679 4.41243 32.5447 8.19444 32.5447C10.8898 32.5447 13.3473 30.9548 14.4538 28.494C14.6055 28.1569 15.0009 28.0083 15.3369 28.1585C15.6735 28.3102 15.8236 28.7055 15.6724 29.0416C15.5528 29.3066 15.4165 29.5598 15.2723 29.8072C22.4773 33.352 28.352 28.0377 29.4402 26.9537C29.351 20.8808 26.2352 16.6597 25.1945 15.4202C24.4065 15.8636 23.5351 16.1703 22.6103 16.3225C22.6685 17.4092 22.9244 19.9779 24.0667 22.6134C24.0683 22.6169 24.0687 22.6205 24.0691 22.6242C24.0695 22.6279 24.0699 22.6316 24.0715 22.6353C24.0853 22.6712 24.0908 22.7078 24.0963 22.7452C24.0976 22.7539 24.0989 22.7627 24.1003 22.7716C24.1024 22.7843 24.1051 22.7969 24.1078 22.8095C24.1135 22.8366 24.1192 22.8635 24.1185 22.8912C24.1181 22.9194 24.1114 22.9466 24.1046 22.9738C24.1018 22.9852 24.099 22.9967 24.0966 23.0082C24.0943 23.0196 24.0923 23.031 24.0903 23.0423C24.0845 23.0755 24.0788 23.108 24.0656 23.1391C24.0563 23.1616 24.042 23.1815 24.0276 23.2015C24.0205 23.2114 24.0134 23.2213 24.0068 23.2315C24.0024 23.2385 23.998 23.2454 23.9937 23.2524C23.9716 23.2875 23.9494 23.3231 23.9182 23.3534C23.916 23.3557 23.9144 23.3583 23.9128 23.3608C23.9108 23.3641 23.9088 23.3672 23.9059 23.3699C23.8824 23.3918 23.8553 23.4063 23.8279 23.4208C23.8166 23.4268 23.8053 23.4328 23.7942 23.4394C23.7829 23.4462 23.773 23.4543 23.763 23.4623C23.7495 23.4734 23.7361 23.4843 23.7194 23.4917C23.7167 23.4926 23.7141 23.4929 23.7115 23.4932C23.7094 23.4934 23.7074 23.4937 23.7055 23.4944C23.6297 23.5259 23.5495 23.542 23.4688 23.5441C23.4651 23.5441 23.461 23.546 23.4571 23.5469C23.456 23.5471 23.4549 23.5473 23.4539 23.5473C23.3721 23.5473 23.2941 23.527 23.2188 23.4987C23.2026 23.4927 23.1877 23.4853 23.1722 23.4777C23.1684 23.4758 23.1645 23.4739 23.1606 23.472C23.0965 23.4399 23.0372 23.3993 22.9859 23.348C22.9825 23.3446 22.9783 23.3423 22.9742 23.3399C22.9699 23.3374 22.9657 23.335 22.9624 23.3315C18.7604 18.7684 12.7036 22.4334 12.6432 22.4713C12.3296 22.6658 11.9182 22.5685 11.7237 22.2549C11.5298 21.9413 11.6265 21.5294 11.9401 21.3355C11.9567 21.3253 12.3606 21.0817 13.0284 20.7873ZM21.3206 1.904C17.6834 1.904 14.7236 4.86379 14.7236 8.50154C14.7236 12.1404 17.6834 15.1012 21.3206 15.1012C24.9594 15.1012 27.9197 12.1404 27.9197 8.50154C27.9197 4.86379 24.9594 1.904 21.3206 1.904ZM14.5003 30.9115C12.9648 32.7595 10.6648 33.8804 8.19444 33.8804C3.67569 33.8804 0 30.2041 0 25.6859C0 21.1682 3.67569 17.4931 8.19444 17.4931C10.6985 17.4931 12.8606 18.4873 14.3528 20.2841C16.3595 19.6392 19.3134 19.215 22.0258 20.8456C21.4857 18.9484 21.3227 17.3098 21.2768 16.4353C16.9231 16.4107 13.3879 12.8627 13.3879 8.50154C13.3879 4.12705 16.9466 0.568359 21.3206 0.568359C25.6962 0.568359 29.2554 4.12705 29.2554 8.50154C29.2554 10.9874 28.1046 13.2078 26.31 14.6642C27.5757 16.1842 30.7721 20.6655 30.7839 27.177C30.7839 27.1781 30.7844 27.1792 30.7844 27.1802C30.7844 27.1859 30.7847 27.1913 30.785 27.1968C30.7852 27.2023 30.7855 27.2078 30.7855 27.2134C30.7855 27.2346 30.7801 27.2538 30.7747 27.2731C30.7713 27.2854 30.7678 27.2977 30.7657 27.3106C30.7645 27.319 30.7634 27.3274 30.7622 27.3358C30.7569 27.3753 30.7515 27.415 30.7374 27.4511C30.7237 27.488 30.701 27.5215 30.6782 27.5551C30.6726 27.5633 30.667 27.5716 30.6616 27.5799C30.6549 27.5901 30.6495 27.6009 30.6442 27.6116C30.6358 27.6285 30.6274 27.6453 30.614 27.66C30.6124 27.6616 30.5969 27.6782 30.5905 27.6856C30.59 27.6856 30.59 27.6862 30.59 27.6862C30.3271 27.9688 26.1412 32.3556 20.2441 32.3556C18.4639 32.3556 16.5288 31.9469 14.5003 30.9115ZM17.5074 8.50149C17.5074 6.39812 19.2181 4.68689 21.3209 4.68689C23.4243 4.68689 25.1361 6.39812 25.1361 8.50149C25.1361 10.6054 23.4243 12.3166 21.3209 12.3166C19.2181 12.3166 17.5074 10.6054 17.5074 8.50149ZM26.4717 8.50149C26.4717 5.66191 24.161 3.35125 21.3209 3.35125C18.4813 3.35125 16.1718 5.66191 16.1718 8.50149C16.1718 11.3416 18.4813 13.6523 21.3209 13.6523C24.161 13.6523 26.4717 11.3416 26.4717 8.50149ZM21.3208 8.48065V9.14848L21.2999 8.50256C21.2999 8.49134 21.3095 8.48065 21.3208 8.48065ZM22.6356 8.50256C22.6356 7.77757 22.0457 7.18775 21.3208 7.18775C20.5968 7.18775 20.007 7.77757 20.007 8.50256C20.007 9.22701 20.5968 9.8163 21.3208 9.8163C22.0457 9.8163 22.6356 9.22701 22.6356 8.50256Z" fill="#383838"/>
</svg>
