<svg width="146" height="91" viewBox="0 0 146 91" fill="none" xmlns="http://www.w3.org/2000/svg">
<g clip-path="url(#clip0_108_1929)">
<path d="M0.70217 72.0512L44.3409 83.5019L55.9577 86.6111L59.8062 87.6405L71.4454 90.7557L124.619 104.988C124.619 104.988 140.96 92.6489 131.939 74.3542C122.586 55.3857 112.234 66.6664 109.223 38.1205C102.612 -24.5326 6.97673 -9.73696 21.5932 43.815C26.8562 63.0973 0.345515 46.4944 0.702024 72.0517L0.70217 72.0512Z" fill="#EBF3FA"/>
<path d="M66.2468 36.2656C66.2468 36.2656 64.6977 41.2319 63.7924 40.8865C62.887 40.5411 65.917 35.4769 65.917 35.4769C65.917 35.4769 62.7972 31.228 61.0674 30.5117C61.0674 30.5117 61.326 36.304 60.5331 35.746C59.7407 35.1881 59.1918 29.1731 59.1918 29.1731C59.1918 29.1731 55.3169 26.0892 53.273 28.2714C51.2291 30.4535 51.6662 32.3213 52.2185 32.8199C52.7709 33.318 56.8847 35.4396 56.4967 35.9139C56.1087 36.3888 52.898 35.7698 51.6131 34.4729C51.6131 34.4729 51.0822 39.5727 53.4238 40.5462C55.7653 41.5196 57.1885 40.506 58.6247 41.1335C60.0609 41.7616 60.8714 42.6701 59.9841 42.6746C59.0969 42.6791 56.8948 41.1867 55.2768 41.5422C53.6587 41.8978 52.4462 42.0019 54.2901 43.5276C56.1341 45.054 59.9892 46.7652 61.5785 45.5668C61.6479 45.5147 61.714 45.4644 61.7773 45.417C61.6626 45.5249 61.5785 45.5668 61.5785 45.5668C61.8416 45.993 61.8496 47.3605 61.814 48.3877C61.797 48.5567 61.7846 48.7964 61.779 49.1277C61.7705 49.2741 61.762 49.394 61.7564 49.4771C61.5152 51.6926 59.4532 54.6418 59.4532 54.6418L59.8322 54.9957C62.5007 52.3376 62.1698 48.8106 62.1698 48.8106C62.1557 46.1462 63.1677 44.3683 63.1677 44.3683C63.1677 44.3683 68.3325 44.2552 68.0829 40.2398C68.0829 40.2398 67.5848 37.5901 66.2463 36.265L66.2468 36.2656Z" fill="#DFEBFD"/>
<path d="M51.031 54.7861C51.031 54.7861 58.6288 58.3906 57.8715 59.7643C57.1141 61.138 49.6942 55.1366 49.6942 55.1366C49.6942 55.1366 42.1901 59.1798 40.6539 61.7916C40.6539 61.7916 49.9811 62.6842 48.9092 63.829C47.8372 64.9737 38.0882 64.496 38.0882 64.496C38.0882 64.496 32.2784 70.013 35.3095 73.7825C38.3406 77.5527 41.4282 77.2728 42.3499 76.5C43.2716 75.7272 47.5949 69.6099 48.267 70.3392C48.9391 71.069 47.2245 76.0772 44.8586 77.8444C44.8586 77.8444 52.8998 79.8462 54.9861 76.3118C57.0723 72.7774 55.7711 70.2663 57.1006 68.1056C58.4295 65.9449 60.0662 64.8499 59.8736 66.274C59.681 67.6974 56.7956 70.8915 56.9989 73.566C57.2022 76.2405 57.0955 78.2079 59.9538 75.5961C62.8121 72.9843 66.4209 67.1892 64.8622 64.3705C64.7944 64.2479 64.7295 64.1303 64.6673 64.0183C64.8136 64.2269 64.8622 64.3705 64.8622 64.3705C65.6037 64.0443 67.7939 64.3406 69.4295 64.63C69.696 64.6956 70.0767 64.7696 70.6065 64.8533C70.8391 64.9002 71.0283 64.9404 71.1599 64.9686C74.6502 65.8551 78.9046 69.827 78.9046 69.827L79.5569 69.299C75.9051 64.4203 70.1874 64.1551 70.1874 64.1551C65.9206 63.5763 63.304 61.5519 63.304 61.5519C63.304 61.5519 64.2889 53.2456 57.8065 52.7385C57.8065 52.7385 53.4539 52.9398 51.0316 54.7855L51.031 54.7861Z" fill="#CDE0FB"/>
<path d="M109.019 44.6783C109.16 40.2547 101.882 39.4253 101.882 39.4253C101.882 39.4253 95.0233 45.1452 93.6108 44.8999C92.1983 44.654 98.5209 38.8628 98.5209 38.8628C95.9625 37.8017 88.2573 38.9821 88.2573 38.9821C88.2573 38.9821 86.1366 47.454 84.828 46.8678C83.5195 46.2815 87.0877 39.4621 87.0877 39.4621C84.3028 39.4479 81.0125 41.6996 81.0125 41.6996C76.5553 45.6416 81.8421 51.1664 81.8421 51.1664C81.8421 51.1664 81.0441 54.0863 78.2451 56.8603C78.2451 56.8603 77.6549 57.3499 76.9275 58.2668L77.6227 58.4794C77.7362 58.3098 77.8543 58.1487 77.9763 57.9966C77.9763 57.9955 77.9774 57.9944 77.9785 57.9938C77.9802 57.9915 77.9819 57.9893 77.9836 57.987C78.0638 57.8937 78.179 57.762 78.3213 57.6015C78.3213 57.6015 78.3213 57.6015 78.3213 57.6009C78.3213 57.6009 78.3213 57.6009 78.3219 57.6003C78.6613 57.2487 78.8991 56.9853 79.0572 56.7908C79.0572 56.7908 79.0584 56.7897 79.0584 56.7891C80.0941 55.6766 81.5309 54.2542 82.2516 54.0841C82.2516 54.0841 82.2075 53.9523 82.2002 53.7194C82.2166 53.8359 82.2335 53.9569 82.2516 54.0841C82.6627 57.0017 88.4855 59.2477 92.0097 59.5807C95.5338 59.9136 94.3738 58.5354 93.0522 56.4697C91.7301 54.404 87.8659 53.6606 86.9425 52.7267C86.0191 51.7928 87.8162 51.6911 89.9754 52.5373C92.1345 53.3836 92.5643 55.9349 96.0325 57.3674C99.5002 58.7999 104.274 52.9076 104.274 52.9076C101.573 52.9195 97.5675 50.206 97.6568 49.3026C97.7466 48.3992 104.269 50.4864 105.367 50.5435C106.465 50.6 108.875 49.103 109.016 44.6794L109.019 44.6783Z" fill="#CDE0FB"/>
<path d="M85.3705 26.8147C85.9602 28.3699 91.0143 32.4544 91.0143 32.4544C91.0143 32.4544 92.6617 31.1146 94.1872 29.6719C95.3291 28.604 96.396 27.4796 96.6484 26.8142C97.2476 25.2686 96.6111 23.0576 94.4023 22.6828C92.2031 22.308 91.0143 24.6128 91.0143 24.6128C91.0143 24.6128 89.8254 22.308 87.6166 22.6828C87.2332 22.7484 86.896 22.8699 86.6057 23.039C85.2299 23.8072 84.8837 25.5405 85.37 26.8142L85.3705 26.8147Z" fill="#F99746"/>
<path d="M67.8114 12.7954C67.7069 12.4771 66.4576 9.0846 61.133 10.4295C61.133 10.4295 63.8151 9.98855 64.5927 10.9999C64.5927 10.9999 62.4201 10.101 61.1132 10.9705C59.8063 11.84 59.6905 14.6055 59.9215 15.4371C60.1525 16.2687 61.7232 18.7109 62.7013 18.6741C63.0718 18.66 63.4632 18.522 63.8066 18.3558C63.6733 18.8053 63.5564 19.2931 63.4638 19.8262C62.6087 24.7581 65.9985 28.3546 67.6448 27.3727C68.7003 26.7429 69.5876 28.6 69.5876 28.6L78.0873 16.3953C78.0873 16.3953 71.5727 9.13265 67.8114 12.7959V12.7954Z" fill="#2C3A64"/>
<path d="M79.7237 60.1925C79.6808 61.5051 82.0076 65.7886 83.3422 69.4903H83.3427C84.2035 71.8799 85.0546 74.0954 85.512 75.2701C85.7972 76.0028 86.022 76.758 86.1785 77.528C86.576 79.4834 87.2238 83.5797 87.4373 90.2381C87.4396 90.3268 87.4424 90.4161 87.4452 90.5055L75.4196 90.5021L75.3716 90.2381L75.1078 88.7925L75.1061 88.7846L75.3614 82.4977L74.6029 81.3292L72.4286 82.15L71.4662 90.2381L71.4357 90.5009L59.3869 90.4975C59.3869 90.4111 59.3869 90.3246 59.3864 90.2386C59.383 88.1311 59.3807 86.3328 59.3802 84.8008C59.3768 79.5716 60.3148 74.3854 62.1532 69.4903C63.551 65.7699 65.6203 61.8777 65.1854 60.0494C65.0843 59.6266 63.6255 55.9192 62.9354 52.399C62.8631 52.0315 62.7919 51.6624 62.7208 51.2943C62.7027 51.3661 62.6857 51.4379 62.6688 51.5103C61.554 56.1697 60.1014 62.2146 59.8274 63.2152C59.3711 64.8778 55.1698 77.6727 55.1698 77.6727H53.1248C53.1248 77.6727 54.4034 65.1345 55.5538 61.9359C56.7037 58.7373 57.2696 46.7859 58.3653 41.5929C58.9351 38.8946 59.8325 37.7165 61.3077 36.942H61.3083V36.9403C62.0639 36.544 62.9715 36.2535 64.0638 35.9182C64.7539 35.7062 65.5175 35.4773 66.3641 35.1935C67.5851 34.7836 68.7209 34.1556 69.0609 32.9113C69.3641 31.8027 69.5827 30.3425 69.5946 28.5923C69.5974 28.2372 69.5912 27.8709 69.5754 27.4938V27.4916L69.9374 27.5475L70.2841 27.6029L76.0109 28.5171C76.0109 28.5171 76.0087 28.5877 76.0053 28.7144C76.0047 28.7336 76.0036 28.7551 76.003 28.7782V28.7884C76.0024 28.8082 76.0013 28.8297 76.0013 28.8529C75.9996 28.893 75.9991 28.9371 75.9979 28.9846C75.9974 29.0168 75.9962 29.0502 75.9957 29.0858C75.9934 29.1994 75.9906 29.3277 75.9883 29.4685C75.9878 29.5052 75.9866 29.542 75.9866 29.5799C75.9866 29.5985 75.9861 29.6172 75.9861 29.6364C75.9855 29.6935 75.9844 29.7517 75.9838 29.8116V29.8201C75.9821 29.9298 75.9815 30.0434 75.981 30.161C75.9793 30.4081 75.9793 30.6721 75.9815 30.9457C75.9821 31.0638 75.9838 31.1831 75.9849 31.3041C75.9855 31.3312 75.9866 31.3584 75.9866 31.3866C75.9889 31.5031 75.9911 31.6212 75.994 31.7394C75.9974 31.8971 76.0019 32.0548 76.0075 32.212C76.0431 33.2369 75.8946 33.995 76.1724 34.5174C76.4768 35.0906 78.0859 35.4976 79.8513 36.241C80.7527 36.6209 81.6959 37.0879 82.5267 37.7097C83.5715 38.4904 84.4384 39.5159 84.8241 40.9185C86.2304 46.0363 87.1572 58.7396 88.3071 61.9382C89.4575 65.1368 90.7361 77.675 90.7361 77.675H88.6911C88.6911 77.675 84.4898 64.8801 84.0335 63.2175C83.8928 62.7036 83.4405 60.8562 82.883 58.5497C82.3742 56.4433 81.7761 53.9542 81.248 51.7472C81.1977 51.5374 81.1486 51.33 81.0995 51.1253C81.0724 51.7042 81.0458 52.2825 81.0198 52.8507C80.8612 56.3155 79.7542 59.2704 79.7243 60.1947L79.7237 60.1925Z" fill="#FFB27D"/>
<path d="M76.0101 28.5164C76.0101 28.5164 75.944 30.4204 76.0073 32.2096C72.6305 32.2413 70.7318 29.2281 69.9371 27.548L76.0107 28.5164H76.0101Z" fill="#ED985F"/>
<path d="M77.2004 30.1683C77.2004 30.1683 69.2236 30.6002 69.0315 25.6237C68.8395 20.6472 67.6806 17.3513 72.7652 16.8652C77.8498 16.379 78.9133 18.2395 79.3809 19.8851C79.8486 21.5307 79.2702 29.9274 77.2004 30.1683Z" fill="#FFB27D"/>
<path d="M79.0397 17.127C77.7498 15.6764 76.8298 16.0399 76.3243 16.5097C71.8717 14.2727 69.1935 17.9281 69.1935 17.9281C68.7937 21.519 66.2979 23.661 66.2979 23.661C66.2979 23.661 67.7867 24.5056 71.1081 23.5162C72.1224 23.2138 73.0097 22.4506 73.754 21.5376C72.4822 23.8662 70.6964 25.5763 70.6964 25.5763C74.6328 23.5722 76.0323 17.9343 76.1707 17.339C76.6744 17.7585 77.6707 18.6737 77.9983 19.5958C78.4439 20.8479 78.7206 23.4501 79.4768 23.3331C79.4768 23.3331 80.9746 19.3029 79.0397 17.1276V17.127Z" fill="#2C3A64"/>
<path d="M53.1675 77.2598C53.1675 77.2598 51.4179 80.104 51.3501 80.9395C51.2823 81.775 51.5274 84.6322 51.5274 84.6322C51.5274 84.6322 52.1792 84.4518 52.3141 83.1103C52.4497 81.7683 54.506 80.9627 54.92 80.0825C55.334 79.2023 55.1719 77.3752 55.1719 77.3752L53.167 77.2593L53.1675 77.2598Z" fill="#FFB27D"/>
<path d="M55.2037 77.5681C55.2037 77.5681 55.769 79.8514 55.525 80.6191C55.2811 81.3868 55.0167 82.6034 54.6333 82.4807C54.2498 82.3586 53.92 80.0521 53.92 80.0521L55.2043 77.5681H55.2037Z" fill="#FFB27D"/>
<path d="M51.7816 81.004C51.7613 81.1227 50.6504 84.3026 50.6504 84.3026C50.6504 84.3026 51.5676 84.3088 51.6275 83.8673C51.6873 83.4258 51.7816 81.0034 51.7816 81.0034V81.004Z" fill="#FFB27D"/>
<path d="M90.6858 77.5681C90.6858 77.5681 92.4354 80.4122 92.5032 81.2478C92.571 82.0833 92.3259 84.9404 92.3259 84.9404C92.3259 84.9404 91.6741 84.7601 91.5391 83.418C91.4036 82.076 89.3473 81.2704 88.9339 80.3908C88.5199 79.5106 88.6571 77.5681 88.6571 77.5681H90.6863H90.6858Z" fill="#FFB27D"/>
<path d="M88.6498 77.8767C88.6498 77.8767 88.0845 80.16 88.3285 80.9277C88.5725 81.6954 88.8368 82.912 89.2202 82.7893C89.6037 82.6672 89.9336 80.3607 89.9336 80.3607L88.6493 77.8767H88.6498Z" fill="#FFB27D"/>
<path d="M92.0716 81.3127C92.0919 81.4314 93.2034 84.6113 93.2034 84.6113C93.2034 84.6113 92.2862 84.6176 92.2263 84.176C92.1665 83.7345 92.0722 81.3121 92.0722 81.3121L92.0716 81.3127Z" fill="#FFB27D"/>
<path d="M62.1531 69.4906C62.1531 69.4906 70.4032 72.0317 83.3421 69.4906C83.3421 69.4906 87.0193 74.8815 88.5402 90.2384H75.3467L74.1228 82.8327L72.6211 82.8564L71.7395 90.2384H58.2093C58.2093 90.2384 58.5905 76.4327 62.1537 69.4906H62.1531Z" fill="#F99746"/>
<path d="M81.3851 44.4724C81.5348 46.0683 82.0431 47.5822 81.2473 51.7446C81.1807 52.0935 81.105 52.4609 81.0192 52.8482C81.0192 52.8482 73.109 55.4283 63.0815 52.8482C63.0815 52.8482 63.0245 52.6819 62.9347 52.3987C62.8624 52.1703 62.7698 51.8662 62.6681 51.5106C62.2587 50.0815 61.7103 47.8281 61.8481 46.4035C62.0627 44.1846 63.5531 39.7904 61.307 36.9418H61.3076V36.9401C62.0633 36.5438 62.9708 36.2532 64.0631 35.918C64.0631 35.918 66.0596 42.0443 68.7829 42.3666C71.5073 42.6888 73.9053 42.5011 73.9053 42.5011C73.9053 42.5011 77.1257 42.6097 78.341 40.3913C79.2418 38.7468 79.801 36.4448 79.8507 36.2391C80.752 36.619 81.6952 37.0859 82.526 37.7078C82.1815 38.5388 81.1333 41.7956 81.3851 44.4724Z" fill="white"/>
<path d="M88.1936 37.5295C88.1912 37.523 88.1889 37.5154 88.1871 37.5089C88.193 37.5041 88.196 37.5112 88.1936 37.5295Z" fill="white"/>
<path d="M55.6603 19.1829C55.5542 19.2043 54.4766 16.7582 51.786 17.765C51.786 17.765 51.3613 15.0713 48.2252 15.2279C45.6792 15.3551 45.4216 18.1455 45.4216 18.1455C45.4216 18.1455 43.1801 17.6729 42.277 19.1829H55.6603Z" fill="white"/>
<path d="M46.4733 21.2056C46.4733 18.0794 44.0719 15.5151 41.0148 15.2596C41.6542 15.0397 42.3403 14.9204 43.0542 14.9204C46.5219 14.9204 49.3333 17.7346 49.3333 21.2056C49.3333 24.6767 46.5219 27.4909 43.0542 27.4909C42.3403 27.4909 41.6542 27.3716 41.0148 27.1517C44.0719 26.8961 46.4733 24.3318 46.4733 21.2056Z" fill="#AFCDFB"/>
<path d="M49.6344 25.5762C49.4401 25.6152 47.4707 21.1446 42.5527 22.9847C42.5527 22.9847 41.7762 18.0614 36.0443 18.348C31.3906 18.5803 30.9202 23.6806 30.9202 23.6806C30.9202 23.6806 26.8228 22.8174 25.1725 25.5767H49.6344V25.5762Z" fill="white"/>
<path d="M67.3811 57.9089C65.3411 60.195 65.2671 63.5016 67.1574 65.4383C67.2772 65.561 67.4856 65.5469 67.6132 65.4039C67.7397 65.262 67.7476 65.0562 67.6296 64.9341C65.9805 63.2268 66.051 60.3267 67.8419 58.3204C69.7079 56.2299 72.7458 55.8884 74.6141 57.5595L75.0738 57.0445C72.9514 55.1467 69.5007 55.5345 67.3816 57.9089H67.3811Z" fill="white"/>
<path d="M74.0258 57.963L75.4891 58.0585C75.6066 58.0664 75.7066 57.9483 75.68 57.8346L75.3553 56.4637C75.3293 56.3535 75.1898 56.3292 75.1085 56.4202L73.9467 57.7216C73.8631 57.8154 73.9083 57.9551 74.0252 57.9624L74.0258 57.963Z" fill="white"/>
<path d="M77.2619 66.297C79.3019 64.0109 79.3759 60.7043 77.4856 58.7676C77.3658 58.6449 77.1574 58.659 77.0298 58.802C76.9033 58.9439 76.8954 59.1497 77.0134 59.2718C78.6626 60.9791 78.592 63.8792 76.8011 65.8855C74.9351 67.976 71.8972 68.3175 70.0289 66.6464L69.5692 67.1614C71.6916 69.0592 75.1424 68.6714 77.2614 66.297H77.2619Z" fill="white"/>
<path d="M70.6173 66.2428L69.1539 66.1472C69.0365 66.1393 68.9365 66.2575 68.9631 66.3711L69.2872 67.742C69.3132 67.8522 69.4527 67.8765 69.534 67.7855L70.6958 66.4842C70.7794 66.3903 70.7342 66.2507 70.6173 66.2433V66.2428Z" fill="white"/>
<path d="M30.4401 84.9944C30.4401 83.0616 29.3716 81.3786 27.7936 80.5041V79.8641H25.3149C22.4842 79.8641 20.1896 82.161 20.1896 84.9944C20.1896 87.8278 22.4842 90.1247 25.3149 90.1247H27.7936V89.4847C29.3716 88.6102 30.4401 86.9278 30.4401 84.9944Z" fill="#F99746"/>
<path d="M27.794 90.1247C30.6247 90.1247 32.9193 87.8278 32.9193 84.9944C32.9193 82.161 30.6247 79.8641 27.794 79.8641C24.9634 79.8641 22.6688 82.161 22.6688 84.9944C22.6688 87.8278 24.9634 90.1247 27.794 90.1247Z" fill="#EF7E29"/>
<path d="M43.6926 87.0844H27.7373C26.584 87.0844 25.6488 86.1488 25.6488 84.9939C25.6488 83.8395 26.5835 82.9033 27.7373 82.9033H43.6926C44.8458 82.9033 45.7811 83.8389 45.7811 84.9939C45.7811 86.1483 44.8464 87.0844 43.6926 87.0844Z" fill="#EA6C2D"/>
<path d="M43.7649 84.9944C43.7649 83.0616 42.6963 81.3786 41.1183 80.5041V79.8641H38.6396C35.809 79.8641 33.5143 82.161 33.5143 84.9944C33.5143 87.8278 35.809 90.1247 38.6396 90.1247H41.1183V89.4847C42.6963 88.6102 43.7649 86.9278 43.7649 84.9944Z" fill="#F99746"/>
<path d="M41.1183 90.1247C43.9489 90.1247 46.2436 87.8278 46.2436 84.9944C46.2436 82.161 43.9489 79.8641 41.1183 79.8641C38.2877 79.8641 35.993 82.161 35.993 84.9944C35.993 87.8278 38.2877 90.1247 41.1183 90.1247Z" fill="#EF7E29"/>
<path d="M41.5675 87.2016C42.7831 87.0812 43.6709 85.9973 43.5507 84.7806C43.4304 83.5639 42.3476 82.6751 41.1321 82.7955C39.9165 82.9158 39.0287 83.9998 39.1489 85.2165C39.2692 86.4332 40.352 87.3219 41.5675 87.2016Z" fill="#F99746"/>
<path d="M87.4009 28.7119L86.8796 25.9724L86.652 27.1426H83.5802V26.9571H86.5001L86.8818 24.9932L87.4268 27.8577L87.6719 26.891H88.2023L88.5643 25.2041L89.0274 27.7757L89.2708 26.7909H90.3665L90.7697 25.4681L91.1221 27.7848L91.4056 26.7909H92.3127L92.5787 25.3381L93.1508 27.6242L93.358 26.7909H94.5305L94.5915 27.4852L95.237 24.9587L95.6617 26.7977H97.5684V26.9831H95.5143L95.228 25.7411L94.5028 28.5796L94.3611 26.9764H93.5026L93.1513 28.3874L92.6063 26.2115L92.4663 26.9764H91.5451L91.0673 28.652L90.7093 26.3002L90.5031 26.9764H89.4154L88.9986 28.661L88.5485 26.1595L88.3514 27.0759H87.8154L87.4009 28.7119Z" fill="white"/>
<path d="M42.0408 48.6105H37.6695L35.4838 44.8212L37.6695 41.0319H42.0408L44.2265 44.8212L42.0408 48.6105ZM37.835 48.3245H41.8759L43.8961 44.8218L41.8759 41.319H37.835L35.8148 44.8218L37.835 48.3245Z" fill="#78ACEA"/>
<path d="M29.605 55.8313L29.3576 55.6877L31.419 52.1132L29.3989 48.6105H25.2755V48.3245H29.5638L31.7494 52.1132L29.605 55.8313Z" fill="#78ACEA"/>
<path d="M29.5639 48.6105H25.1926L23.0488 44.893L23.2961 44.75L25.3581 48.3245H29.399L31.4192 44.8212L29.399 41.3185H25.2757V41.0319H29.5639L31.7496 44.8212L29.5639 48.6105Z" fill="#78ACEA"/>
<path d="M43.8951 52.1851L41.7512 48.4676L43.9363 44.6782H48.3076L50.452 48.3958L50.2041 48.5388L48.1427 44.9643H44.1018L42.081 48.4676L44.143 52.0421L43.8951 52.1851Z" fill="#78ACEA"/>
<path d="M35.8029 52.2569H31.5146V51.9703H35.638L37.6582 48.4676L35.638 44.9643H31.5971L29.5351 48.5388L29.2877 48.3958L31.4322 44.6782H35.8029L37.9886 48.4676L35.8029 52.2569Z" fill="#78ACEA"/>
<path d="M48.2251 44.9643H43.9363L41.7512 41.1756L43.9363 37.3862H48.2251V37.6723H44.1017L42.081 41.1756L44.1017 44.6783H48.2251V44.9643Z" fill="#78ACEA"/>
<path d="M35.329 44.7392C35.329 44.5351 35.4945 44.3695 35.6984 44.3695C35.9023 44.3695 36.0678 44.5351 36.0678 44.7392C36.0678 44.9433 35.9023 45.1089 35.6984 45.1089C35.4945 45.1089 35.329 44.9433 35.329 44.7392Z" fill="#78ACEA"/>
<path d="M31.1581 44.7392C31.1581 44.5351 31.3236 44.3695 31.5275 44.3695C31.7314 44.3695 31.8968 44.5351 31.8968 44.7392C31.8968 44.9433 31.7314 45.1089 31.5275 45.1089C31.3236 45.1089 31.1581 44.9433 31.1581 44.7392Z" fill="#78ACEA"/>
<path d="M31.1581 52.0777C31.1581 51.8736 31.3236 51.708 31.5275 51.708C31.7314 51.708 31.8968 51.8736 31.8968 52.0777C31.8968 52.2818 31.7314 52.4474 31.5275 52.4474C31.3236 52.4474 31.1581 52.2818 31.1581 52.0777Z" fill="#78ACEA"/>
<path d="M29.0614 55.69C29.0614 55.4859 29.2269 55.3203 29.4308 55.3203C29.6346 55.3203 29.8001 55.4859 29.8001 55.69C29.8001 55.8941 29.6346 56.0598 29.4308 56.0598C29.2269 56.0598 29.0614 55.8941 29.0614 55.69Z" fill="#78ACEA"/>
<path d="M35.6991 52.4474C35.903 52.4474 36.0684 52.2819 36.0684 52.0777C36.0684 51.8735 35.903 51.708 35.6991 51.708C35.4951 51.708 35.3297 51.8735 35.3297 52.0777C35.3297 52.2819 35.4951 52.4474 35.6991 52.4474Z" fill="#78ACEA"/>
<path d="M37.4029 48.4088C37.4029 48.2047 37.5684 48.0391 37.7723 48.0391C37.9761 48.0391 38.1416 48.2047 38.1416 48.4088C38.1416 48.6129 37.9761 48.7785 37.7723 48.7785C37.5684 48.7785 37.4029 48.6129 37.4029 48.4088Z" fill="#78ACEA"/>
<path d="M41.538 48.4088C41.538 48.2047 41.7035 48.0391 41.9074 48.0391C42.1113 48.0391 42.2768 48.2047 42.2768 48.4088C42.2768 48.6129 42.1113 48.7785 41.9074 48.7785C41.7035 48.7785 41.538 48.6129 41.538 48.4088Z" fill="#78ACEA"/>
<path d="M29.5458 48.7786C29.7498 48.7786 29.9152 48.6131 29.9152 48.4089C29.9152 48.2047 29.7498 48.0392 29.5458 48.0392C29.3419 48.0392 29.1765 48.2047 29.1765 48.4089C29.1765 48.6131 29.3419 48.7786 29.5458 48.7786Z" fill="#78ACEA"/>
<path d="M24.9062 48.4089C24.9062 48.2048 25.0717 48.0392 25.2756 48.0392C25.4795 48.0392 25.645 48.2048 25.645 48.4089C25.645 48.613 25.4795 48.7786 25.2756 48.7786C25.0717 48.7786 24.9062 48.613 24.9062 48.4089Z" fill="#78ACEA"/>
<path d="M22.864 44.9303C22.864 44.7262 23.0295 44.5605 23.2334 44.5605C23.4372 44.5605 23.6027 44.7262 23.6027 44.9303C23.6027 45.1343 23.4372 45.3 23.2334 45.3C23.0295 45.3 22.864 45.1343 22.864 44.9303Z" fill="#78ACEA"/>
<path d="M25.0333 41.1755C25.0333 40.9714 25.1988 40.8058 25.4027 40.8058C25.6066 40.8058 25.772 40.9714 25.772 41.1755C25.772 41.3796 25.6066 41.5452 25.4027 41.5452C25.1988 41.5452 25.0333 41.3796 25.0333 41.1755Z" fill="#78ACEA"/>
<path d="M41.538 41.1755C41.538 40.9714 41.7035 40.8058 41.9074 40.8058C42.1113 40.8058 42.2767 40.9714 42.2767 41.1755C42.2767 41.3796 42.1113 41.5452 41.9074 41.5452C41.7035 41.5452 41.538 41.3796 41.538 41.1755Z" fill="#78ACEA"/>
<path d="M37.4029 41.1755C37.4029 40.9714 37.5684 40.8058 37.7723 40.8058C37.9761 40.8058 38.1416 40.9714 38.1416 41.1755C38.1416 41.3796 37.9761 41.5452 37.7723 41.5452C37.5684 41.5452 37.4029 41.3796 37.4029 41.1755Z" fill="#78ACEA"/>
<path d="M43.6232 44.8213C43.6232 44.6172 43.7886 44.4515 43.9925 44.4515C44.1964 44.4515 44.3619 44.6172 44.3619 44.8213C44.3619 45.0253 44.1964 45.191 43.9925 45.191C43.7886 45.191 43.6232 45.0253 43.6232 44.8213Z" fill="#78ACEA"/>
<path d="M47.8557 44.8213C47.8557 44.6172 48.0212 44.4515 48.225 44.4515C48.4289 44.4515 48.5944 44.6172 48.5944 44.8213C48.5944 45.0253 48.4289 45.191 48.225 45.191C48.0212 45.191 47.8557 45.0253 47.8557 44.8213Z" fill="#78ACEA"/>
<path d="M49.9685 48.4314C49.9685 48.2273 50.134 48.0616 50.3379 48.0616C50.5418 48.0616 50.7072 48.2273 50.7072 48.4314C50.7072 48.6354 50.5418 48.8011 50.3379 48.8011C50.134 48.8011 49.9685 48.6354 49.9685 48.4314Z" fill="#78ACEA"/>
<path d="M47.8557 37.5229C47.8557 37.3188 48.0211 37.1532 48.225 37.1532C48.4289 37.1532 48.5944 37.3188 48.5944 37.5229C48.5944 37.727 48.4289 37.8926 48.225 37.8926C48.0211 37.8926 47.8557 37.727 47.8557 37.5229Z" fill="#78ACEA"/>
<path d="M43.9925 52.4473C44.1965 52.4473 44.3619 52.2818 44.3619 52.0776C44.3619 51.8734 44.1965 51.7079 43.9925 51.7079C43.7885 51.7079 43.6232 51.8734 43.6232 52.0776C43.6232 52.2818 43.7885 52.4473 43.9925 52.4473Z" fill="#78ACEA"/>
<path d="M115.398 56.4849C115.349 56.4583 114.172 55.8127 112.996 54.5719C111.431 52.9206 110.636 51.0007 110.696 49.0199C110.781 46.2277 111.977 44.5702 112.967 43.6714C114.2 42.5515 115.804 41.9692 117.369 42.0738C120.369 42.2739 120.272 45.4759 120.27 45.5087L119.913 45.494C119.918 45.3735 119.993 42.608 117.345 42.4311C115.877 42.3333 114.368 42.8816 113.207 43.9365C112.269 44.7884 111.134 46.364 111.053 49.0306C110.915 53.5939 115.522 56.1451 115.568 56.1706L115.398 56.4855V56.4849ZM120.091 45.5007L119.913 45.4934L120.091 45.5007Z" fill="#EF7E29"/>
<path d="M129.114 57.7278V87.7112C129.114 89.1075 127.984 90.2382 126.59 90.2382H114.051C112.405 90.2382 111.069 88.9012 111.069 87.2533V57.8227C111.069 55.1573 112.796 52.8949 115.189 52.0966C116.364 51.7049 117.159 50.6059 117.226 49.3684L117.279 48.3339H122.902L122.983 49.3452C123.086 50.6132 123.926 51.6986 125.126 52.1153C127.447 52.922 129.113 55.1301 129.113 57.7283L129.114 57.7278Z" fill="white"/>
<path opacity="0.5" d="M129.114 57.7278V87.7112C129.114 89.1075 127.984 90.2382 126.59 90.2382H117.643C115.997 90.2382 114.661 88.9012 114.661 87.2533V57.8227C114.661 55.1573 116.388 52.8949 118.783 52.0966C119.956 51.7049 120.752 50.6059 120.818 49.3684L120.874 48.3339H122.903L122.983 49.3452C123.086 50.6132 123.926 51.6986 125.127 52.1153C127.447 52.922 129.113 55.1301 129.113 57.7283L129.114 57.7278Z" fill="#AFCDFB"/>
<path d="M128.693 61.2984V87.1069C128.693 88.4371 127.615 89.5158 126.286 89.5158H124.477C122.959 89.5158 122.144 89.1732 121.301 88.4976C120.458 87.8226 118.603 87.934 117.984 88.7221C117.365 89.5107 115.594 89.5158 115.594 89.5158H114.332C112.764 89.5158 111.491 88.241 111.491 86.6694V61.109C113.071 60.7868 115.427 60.6093 118.49 61.2051C122.1 61.9073 126.071 61.6359 128.693 61.2978V61.2984Z" fill="#AFCDFB"/>
<path d="M118.31 45.2937H121.814C122.632 45.2937 123.295 45.9579 123.295 46.7765V48.8461H116.887V46.7171C116.887 45.9313 117.524 45.2931 118.31 45.2931V45.2937Z" fill="#F99746"/>
<path d="M129.114 57.2118H111.069V84.1204H129.114V57.2118Z" fill="#F99746"/>
<path d="M127.634 57.2118H114.661V84.1204H127.634V57.2118Z" fill="#EF7E29"/>
<path d="M123.387 49.2657H116.761C116.354 49.2657 116.022 48.9328 116.022 48.5263C116.022 48.1193 116.355 47.7869 116.761 47.7869H123.387C123.794 47.7869 124.126 48.1198 124.126 48.5263C124.126 48.9333 123.793 49.2657 123.387 49.2657Z" fill="#EF7E29"/>
<path d="M112.756 88.6344C112.756 88.6344 111.876 89.6475 109.668 89.985H109.666C108.739 90.1263 107.577 90.1489 106.147 89.9262C101.312 90.6786 99.5384 88.6344 99.5384 88.6344C94.582 84.6823 94.5256 76.3845 99.5384 74.5065C101.005 73.9576 102.288 74.0458 103.334 74.3838C105.166 74.9769 107.13 74.9769 108.96 74.3838C110.006 74.0458 111.29 73.9576 112.756 74.5065C113.437 74.7615 114.025 75.1357 114.52 75.6015L114.578 75.6564C117.656 78.6418 117.013 85.2402 112.756 88.6344H112.756Z" fill="#95C38B"/>
<path d="M112.756 88.6345C112.756 88.6345 111.876 89.6475 109.668 89.985H109.666C107.113 90.1993 108.232 89.1811 105.46 89.1811C102.689 89.1811 101.043 88.2681 99.3203 84.0215C97.5983 79.7748 98.9916 75.7684 101.722 75.3059C104.452 74.8435 105.83 77.0019 109.283 74.7593C111.669 73.2097 114.518 75.6022 114.518 75.6022L114.576 75.657C117.654 78.6425 117.012 85.2409 112.755 88.635L112.756 88.6345Z" fill="#A8D29F"/>
<path d="M106.477 71.4353C105.464 70.8315 104.439 71.6795 103.249 72.1453C102.058 72.6117 99.7683 72.6021 99.7683 72.6021C99.7683 72.6021 100.71 71.2447 102.254 69.8965C103.798 68.5482 106.477 71.4347 106.477 71.4347L106.477 71.4353Z" fill="#A8D29F"/>
<path d="M106.477 71.4354C105.525 70.653 103.764 70.2047 102.905 70.5563C102.046 70.9085 99.769 72.6022 99.769 72.6022C99.769 72.6022 100.711 71.2449 102.255 69.8966C103.799 68.5483 106.477 71.4348 106.477 71.4348V71.4354Z" fill="#82B378"/>
<path d="M106.071 75.5915C105.422 74.1561 105.773 72.3759 106.181 71.1351C106.506 70.1475 107.13 68.8144 107.436 68.1807C107.5 68.0467 107.695 68.0603 107.742 68.2016L107.865 68.5759C107.989 68.9507 107.944 69.3605 107.74 69.698C107.113 70.736 105.853 73.1617 106.421 75.159C106.484 75.3834 106.187 75.8481 106.072 75.5915H106.071Z" fill="#558949"/>
<path d="M112 75.6677C112 75.6677 113.993 76.2681 114.044 77.777C114.095 79.2852 112.651 79.1456 111.915 78.3751C111.179 77.6045 110.823 75.6157 112 75.6677Z" fill="#D1F2C9"/>
<path d="M62.3003 69.1039C62.3003 69.1039 61.1098 71.5008 61.2532 71.5483C61.3961 71.5958 76.0779 74.6977 83.8474 70.7371L83.0426 68.6901C83.0426 68.6901 75.0223 72.199 62.3009 69.1039H62.3003Z" fill="#EF7E29"/>
<path d="M75.4999 47.4549C68.3013 45.8358 61.218 49.7501 59.3062 56.2467C59.1848 56.6588 59.4559 57.0936 59.9066 57.1947C60.3528 57.2954 60.7972 57.0585 60.9192 56.6509C62.6248 50.9615 68.8435 47.5414 75.161 48.9626C81.7439 50.4431 85.982 56.6283 84.6073 62.7501L86.2288 63.1148C87.7892 56.1619 82.9757 49.1361 75.4993 47.4543L75.4999 47.4549Z" fill="#95C38B"/>
<path d="M83.0734 61.9693L84.5644 65.2691C84.6841 65.5337 85.0495 65.6066 85.2591 65.4076L87.7842 63.0129C87.9869 62.8207 87.8779 62.4877 87.591 62.4233L83.493 61.5018C83.1971 61.4351 82.9543 61.7059 83.0734 61.9693Z" fill="#95C38B"/>
<path d="M69.5977 77.3971C76.7963 79.0162 83.8796 75.1019 85.7914 68.6052C85.9128 68.1931 85.6417 67.7584 85.191 67.6572C84.7449 67.5572 84.3004 67.7935 84.1784 68.201C82.4728 73.8904 76.2541 77.3106 69.9366 75.8894C63.3537 74.4088 59.1156 68.2237 60.4903 62.1018L58.8688 61.7372C57.3084 68.69 62.1219 75.7158 69.5983 77.3977L69.5977 77.3971Z" fill="#A8D29F"/>
<path d="M62.0239 62.8825L60.5329 59.5827C60.4132 59.3181 60.0478 59.2452 59.8382 59.4442L57.3126 61.8389C57.1098 62.0311 57.2188 62.3641 57.5057 62.4285L61.6037 63.35C61.8996 63.4167 62.1419 63.1459 62.0233 62.8825H62.0239Z" fill="#A8D29F"/>
<path d="M73.3744 64.6C73.3744 64.8866 73.2434 65.119 73.0824 65.119C72.9215 65.119 72.7904 64.8866 72.7904 64.6C72.7904 64.3134 72.9215 64.0811 73.0824 64.0811C73.2434 64.0811 73.3744 64.3134 73.3744 64.6Z" fill="#ED985F"/>
</g>
<defs>
<clipPath id="clip0_108_1929">
<rect width="145.295" height="90.4794" fill="white" transform="translate(0.233475 0.261108)"/>
</clipPath>
</defs>
</svg>
