<svg width="156" height="131" viewBox="0 0 156 131" fill="none" xmlns="http://www.w3.org/2000/svg">
<g id="Frame" clip-path="url(#clip0_108_1540)">
<g id="Group">
<g id="Layer 1">
<g id="Group_2">
<path id="Vector" d="M79.2665 55.4758L86.5018 53.5371L87.0445 55.5627L79.8092 57.5014C79.0926 57.6934 78.4115 57.4711 78.2864 57.0044L78.1958 56.6664C78.0708 56.1997 78.5508 55.6663 79.2661 55.4746L79.2665 55.4758Z" fill="#493A35"/>
<g id="Group_3">
<path id="Blob Shape" opacity="0.886645" d="M58.0239 85.4583C62.6179 84.5525 66.9033 84.0386 69.0187 84.4131C71.1424 84.7891 70.5831 86.0105 68.9556 87.3937C67.3585 88.7512 64.4433 90.3229 60.2642 91.8539C56.0089 93.4128 50.9454 94.863 46.5115 95.6159C42.2554 96.3387 39.8963 96.0353 37.9445 95.644C36.0336 95.2608 34.3364 94.7399 35.7596 93.46C37.1913 92.1725 41.1387 90.5713 45.2137 89.1067C49.2509 87.6558 53.7074 86.3094 58.0239 85.4583Z" fill="#5F67A2"/>
<path id="Vector_2" d="M112.155 83.4093L102.381 86.8739L101.112 89.0821L102.882 90.476L115.634 85.5415L112.155 83.4093Z" fill="#838496"/>
<g id="Group_4">
<g id="Group_5">
<path id="Vector_3" d="M100.362 44.0746L101.661 43.7266L115.079 72.6706L120.196 91.7681L116.747 92.6924L112.206 72.3627L100.362 44.0746Z" fill="#EAEBF9"/>
<path id="Vector_4" d="M99.1818 44.3909L100.475 44.0445L113.967 73.1492L119.039 92.0782L115.596 93.0007L111.093 72.8413L99.1818 44.3909Z" fill="#838496"/>
</g>
<g id="Group_6">
<path id="Vector_5" d="M119.91 88.9713L114.412 90.4445L115.265 93.6296L120.763 92.1564L119.91 88.9713Z" fill="#120E0F"/>
<path id="Vector_6" d="M119.911 88.9709L118.439 89.3652L119.293 92.5503L120.764 92.156L119.911 88.9709Z" fill="#493A3F"/>
</g>
</g>
<path id="Vector_7" d="M108.509 86.0108L108.343 84.81L142.396 88.2988L134.7 90.8277L108.509 86.0108Z" fill="#EAEBF9"/>
<path id="Vector_8" d="M108.342 84.81L112.538 83.1018L143.624 86.682L135.551 89.5451L108.342 84.81Z" fill="#676975"/>
<g id="Group_7">
<path id="Vector_9" d="M143.107 77.7973C142.753 77.7452 142.397 77.6935 142.042 77.643C141.879 77.6196 141.715 77.5966 141.551 77.5735C141.533 77.5705 141.519 77.5692 141.507 77.5673C141.499 77.5668 141.489 77.5654 141.48 77.5641C141.399 77.5524 141.316 77.541 141.234 77.5293C140.555 77.4342 139.875 77.3417 139.194 77.2535C138.702 77.1895 138.207 77.1273 137.713 77.0663L109.153 85.2321L109.61 86.9377L120.658 89.0659L147.597 79.9937L147.276 78.4257C145.887 78.2138 144.499 78.0031 143.106 77.8L143.107 77.7973Z" fill="#493A35"/>
<path id="Vector_10" d="M143.107 77.7974C142.752 77.7454 142.397 77.6937 142.042 77.6431C141.879 77.6198 141.715 77.5967 141.551 77.5737C141.533 77.5706 141.519 77.5693 141.506 77.5674C141.499 77.5669 141.489 77.5656 141.48 77.5642C141.398 77.5525 141.316 77.5412 141.234 77.5295C140.555 77.4343 139.875 77.3418 139.194 77.2536C137.85 77.0775 136.5 76.9157 135.144 76.7725C135.073 76.7645 135.004 76.7532 134.938 76.7362L109.153 85.2322L120.23 87.4675L147.302 78.558L147.276 78.4247C145.887 78.2127 144.499 78.002 143.106 77.7989L143.107 77.7974Z" fill="#1E0D07"/>
</g>
<g id="Group_8">
<g id="Group_9">
<path id="Vector_11" d="M136.125 78.6987C136.133 78.6992 136.14 78.7 136.147 78.6993C136.211 78.7016 136.336 78.7005 136.125 78.6987Z" fill="#123F6B"/>
<path id="Vector_12" d="M136.736 78.6356C136.73 78.6372 136.725 78.64 136.719 78.6416C136.654 78.655 136.59 78.6657 136.524 78.6743C136.399 78.6911 136.273 78.6964 136.148 78.6978C136.137 78.6983 136.125 78.6976 136.113 78.6981C136.051 78.6955 135.988 78.6916 135.925 78.6866C135.922 78.6875 135.919 78.6858 135.915 78.6855C135.187 78.6331 134.386 78.4737 133.639 78.5436C133.399 78.5656 133.163 78.6119 132.938 78.6928C133.006 78.4039 133.009 78.0345 132.945 77.5925C132.865 77.026 132.675 76.3396 132.373 75.5478C131.696 73.7723 130.449 71.4686 128.587 68.8078C127.912 67.8437 123.801 60.6288 122.938 59.4974C122.061 58.3478 120.985 57.3327 120.161 56.139C118.908 54.3244 117.936 52.3984 116.911 50.3421C116.014 48.5429 115.631 46.3961 114.629 44.6702L123.651 41.2767C125.403 42.4021 126.007 47.3778 126.552 49.4982C127.213 52.0658 128.427 57.9389 130.593 59.4612C134.134 61.9494 133.764 65.9959 134.417 71.3658C134.556 72.5121 134.791 73.5487 135.106 74.5898C135.307 75.2516 135.539 75.9153 135.798 76.6103C135.993 77.1305 136.19 77.5753 136.391 77.9792C136.505 78.209 136.62 78.4258 136.736 78.6356Z" fill="#123F6B"/>
<path id="Vector_13" d="M136.354 77.9838C136.28 78.1414 136.183 78.3055 136.06 78.4762C136.003 78.5548 135.945 78.6269 135.888 78.6913C135.13 79.539 134.275 79.2615 133.601 78.5486C133.372 78.3059 133.163 78.0123 132.987 77.6959L132.908 77.596C132.828 77.0295 132.638 76.3431 132.336 75.5525C133.15 75.3175 134.262 74.8378 135.07 74.5942C135.271 75.256 135.503 75.9197 135.762 76.6147C135.957 77.1349 136.154 77.5796 136.355 77.9835L136.354 77.9838Z" fill="#FFA471"/>
<g id="Group_10">
<path id="Vector_14" d="M137.254 80.0013C136.64 80.3644 136.114 80.3634 135.537 80.7939C134.98 81.2086 134.639 81.8519 133.963 82.1749C133.115 82.5786 130.031 83.0248 129.362 82.3285C129.411 82.2175 129.471 82.1151 129.542 82.0173C129.983 81.4093 130.802 81.0442 131.312 80.5311C131.513 80.3304 131.684 80.1066 131.84 79.8764C131.926 79.7503 132.006 79.6231 132.086 79.4947C132.562 78.4286 132.749 76.0064 133.853 76.3835C134.375 76.5621 134.434 77.3443 134.709 77.8572C134.766 77.9644 134.833 78.06 134.915 78.136C135.493 78.6694 135.868 78.2235 135.954 77.5867C135.981 77.3927 135.981 77.1813 135.951 76.974C136.146 77.2865 136.364 77.7735 136.588 78.2407C136.681 78.3796 136.768 78.5289 136.852 78.6831C136.936 78.8397 137.016 78.9988 137.089 79.1547C137.134 79.2198 137.179 79.2789 137.223 79.3301L137.172 79.3349C137.269 79.5562 137.2 79.8469 137.254 80.0013Z" fill="#1E0D07"/>
<path id="Vector_15" d="M137.254 80.0012C136.64 80.3644 136.114 80.3634 135.537 80.7938C134.98 81.2086 134.639 81.8518 133.963 82.1749C133.115 82.5785 130.031 83.0248 129.362 82.3285C129.411 82.2175 129.471 82.1151 129.542 82.0173C129.65 82.0412 129.757 82.0616 129.863 82.068C130.358 82.0964 130.894 81.9801 131.411 81.8981C132.473 81.7308 133.154 81.4699 133.933 80.7687C134.693 80.0828 136.102 79.566 136.854 78.6825C136.939 78.8391 137.018 78.9981 137.091 79.154C137.137 79.2191 137.181 79.2782 137.225 79.3295L137.174 79.3342C137.272 79.5555 137.202 79.8462 137.256 80.0006L137.254 80.0012Z" fill="#E6EAEF"/>
</g>
</g>
<g id="Group_11">
<g id="Group_12">
<path id="Vector_16" d="M121.313 50.6725C121.332 53.323 121.089 59.3121 122.822 61.3178C125.618 64.5508 124.353 68.3257 123.676 73.58C123.667 73.6508 123.659 73.7213 123.649 73.7921C123.507 74.9377 123.485 75.9996 123.537 77.0853C123.571 77.776 123.636 78.4756 123.719 79.2127C123.782 79.7643 123.865 80.2434 123.963 80.6852C124.019 80.9359 124.077 81.1741 124.14 81.4063C124.134 81.4079 124.127 81.4083 124.121 81.4087C124.055 81.407 123.99 81.4011 123.925 81.3928C123.801 81.3785 123.677 81.3523 123.554 81.3235C123.542 81.3201 123.53 81.3181 123.519 81.3147C123.459 81.2972 123.399 81.2786 123.34 81.2584C123.337 81.2566 123.332 81.2552 123.33 81.2546C122.636 81.0253 121.898 80.6764 121.156 80.562C120.917 80.5254 120.678 80.5123 120.44 80.536C120.575 80.2717 120.668 79.9142 120.713 79.4701C120.772 78.9011 120.754 78.1893 120.653 77.3487C120.426 75.4615 119.773 72.924 118.611 69.89C118.191 68.7908 115.946 60.7932 115.384 59.4858C114.812 58.1576 114.013 56.9098 113.503 55.5524C112.727 53.4873 112.249 51.3825 111.754 49.1393C111.319 47.1763 111.467 45.0005 110.912 43.0839L118.567 42.2124L120.49 41.9936C121.918 43.5125 121.298 48.4835 121.314 50.6721L121.313 50.6725Z" fill="#0D2F49"/>
<path id="Vector_17" d="M123.926 80.6808C123.816 80.8161 123.683 80.9511 123.522 81.0868C123.448 81.1493 123.374 81.2051 123.303 81.254C122.362 81.8914 121.599 81.4128 121.118 80.558C120.954 80.2667 120.823 79.9318 120.729 79.5818L120.676 79.4657C120.736 78.8967 120.718 78.1846 120.616 77.3443C121.464 77.3145 122.659 77.1206 123.501 77.0818C123.534 77.7716 123.6 78.4721 123.683 79.2092C123.746 79.7608 123.83 80.2399 123.928 80.6817L123.926 80.6808Z" fill="#FFA471"/>
<g id="Group_13">
<path id="Vector_18" d="M124.311 82.8558C123.627 83.0585 123.117 82.9283 122.452 83.2055C121.811 83.4728 121.324 84.0132 120.589 84.1599C119.669 84.3446 116.567 84.0244 116.087 83.1861C116.161 83.0905 116.244 83.0049 116.337 82.9285C116.912 82.4455 117.795 82.2916 118.415 81.919C118.659 81.7726 118.878 81.5991 119.086 81.4131C119.199 81.3119 119.309 81.2078 119.417 81.1028C120.137 80.1853 120.906 77.8831 121.886 78.5177C122.349 78.8177 122.217 79.5905 122.36 80.1557C122.388 80.273 122.431 80.3828 122.492 80.4761C122.924 81.1351 123.396 80.7933 123.633 80.1973C123.706 80.0152 123.757 79.8097 123.778 79.6028C123.892 79.954 123.986 80.4792 124.09 80.9864C124.146 81.1428 124.195 81.3103 124.238 81.4805C124.283 81.6528 124.32 81.8271 124.353 81.9951C124.38 82.0701 124.41 82.137 124.44 82.1984L124.389 82.1902C124.43 82.4293 124.292 82.6933 124.309 82.8565L124.311 82.8558Z" fill="#1E0D07"/>
<path id="Vector_19" d="M124.311 82.8557C123.627 83.0584 123.117 82.9282 122.452 83.2054C121.811 83.4726 121.324 84.0131 120.589 84.1598C119.669 84.3445 116.567 84.0243 116.087 83.186C116.16 83.0903 116.244 83.0047 116.337 82.9284C116.435 82.9781 116.534 83.0237 116.635 83.0559C117.109 83.2036 117.657 83.2205 118.18 83.2687C119.251 83.3657 119.974 83.279 120.9 82.7886C121.803 82.3095 123.296 82.1516 124.24 81.4785C124.285 81.6508 124.322 81.8251 124.355 81.9931C124.382 82.0682 124.412 82.135 124.442 82.1965L124.391 82.1882C124.432 82.4273 124.294 82.6914 124.31 82.8545L124.311 82.8557Z" fill="#E6EAEF"/>
</g>
<g id="Group_14">
<path id="Vector_20" d="M116.739 38.502L116.85 38.5099C116.809 38.4626 116.772 38.4528 116.739 38.502Z" fill="#0A2B44"/>
<path id="Vector_21" d="M121.313 50.6724C121.332 53.323 121.088 59.3121 122.822 61.3178C125.618 64.5508 124.353 68.3256 123.676 73.5799C123.552 71.8225 123.663 70.0392 123.565 68.1678C123.482 66.5801 123.183 64.9133 122.391 63.5473C121.72 62.3866 120.383 61.1075 121.151 59.7233C120.571 59.7162 119.976 59.7173 119.385 59.9181C120.252 59.2641 120.59 59.3991 120.538 58.2503C120.498 57.3932 120.275 56.5391 120.22 55.6824C120.115 54.0191 119.964 52.4041 119.809 50.7169C119.635 48.8373 119.595 46.9801 119.197 45.0872C118.998 44.1376 118.819 43.1644 118.567 42.2135L120.49 41.9947C121.918 43.5137 121.298 48.4847 121.314 50.6733L121.313 50.6724Z" fill="#082333"/>
</g>
</g>
<path id="Vector_22" d="M123.53 81.3181C123.53 81.3181 123.544 81.3221 123.551 81.3241C123.612 81.3417 123.735 81.3722 123.53 81.3181Z" fill="#123F6B"/>
</g>
</g>
<g id="Group_15">
<g id="Group_16">
<path id="Vector_23" d="M127.379 38.8442L128.66 38.501L143.901 73.9209L150.019 96.7556L146.568 97.6803L140.974 73.4158L127.379 38.8442Z" fill="#EAEBF9"/>
<path id="Vector_24" d="M126.293 39.5117L127.567 39.1703L142.891 74.7831L148.956 97.4169L145.512 98.3397L139.965 74.278L126.293 39.5117Z" fill="#838496"/>
</g>
<g id="Group_17">
<path id="Vector_25" d="M149.591 93.4331L144.094 94.9062L145.114 98.7144L150.612 97.2413L149.591 93.4331Z" fill="#120E0F"/>
<path id="Vector_26" d="M149.591 93.4331L148.12 93.8274L149.14 97.6356L150.612 97.2413L149.591 93.4331Z" fill="#493A3F"/>
</g>
</g>
<g id="Group_18">
<path id="Vector_27" d="M122.125 41.5567C119.76 43.6805 113.899 44.1242 111.162 45.9405C109.273 37.5242 101.016 34.6844 99.2814 33.6859C99.1662 33.6201 99.0393 33.5587 98.9046 33.5019C98.1468 33.1854 97.1294 32.9978 96.479 32.6744C95.5506 32.2103 94.5902 31.2957 94.4272 30.2655C94.1975 28.8045 95.4877 27.7239 96.22 26.4977C96.4162 26.1705 96.5709 25.8325 96.6479 25.4728C96.683 25.3113 96.7011 25.144 96.699 24.9731C96.699 24.9731 100.409 21.4831 102.948 18.9424C103.401 18.4898 103.816 18.0679 104.167 17.7005C104.366 17.4911 104.563 17.2965 104.756 17.1146C109.11 13.0152 112.328 16.3931 114.475 21.4643C114.77 22.1615 115.476 23.6161 116.348 25.4438C118.961 30.9202 123.073 39.7465 122.125 41.5567Z" fill="#FFA471"/>
<g id="Group_19">
<path id="Vector_28" d="M122.237 41.194C122.214 41.3354 122.177 41.4562 122.124 41.5567C120.469 43.0432 119.93 45.735 117.12 46.6235C116.447 46.836 114.536 47.2835 113.959 47.5361C113.831 47.5925 113.64 47.6499 113.427 47.7097C113.385 47.721 113.343 47.7322 113.298 47.7441C112.775 47.8856 112.157 48.0371 111.917 48.1967C108.826 42.2001 105.104 37.6229 103.136 36.696C103.127 36.6919 103.119 36.6887 103.112 36.6843C102.848 36.5641 102.604 36.4683 102.38 36.3931C100.794 35.8642 100.232 34.6274 100.096 34.571C99.0797 32.5551 96.2744 26.572 96.221 26.4973C96.4172 26.1702 96.5719 25.8322 96.6489 25.4725L96.677 25.4766C96.7401 25.4339 96.6132 25.2912 96.826 25.3039C97.937 27.4324 103.826 34.3606 104.858 28.7455C105.234 26.7031 102.95 19.2513 102.951 18.9417C103.403 18.4891 103.818 18.0672 104.169 17.6999C104.369 17.4904 104.566 17.2958 104.758 17.114C105.316 18.4176 105.459 19.8926 106.26 21.2419C107.386 23.137 108.583 25.0852 110.232 26.5785C111.113 27.3762 112.107 27.6449 113.071 27.5299C114.326 27.3791 115.528 26.5763 116.352 25.4428C116.368 25.4757 116.384 25.509 116.399 25.5435C116.406 25.5585 116.414 25.5732 116.42 25.5882C118.891 30.7687 122.622 38.8036 122.24 41.193L122.237 41.194Z" fill="#F2E9E7"/>
<path id="Vector_29" d="M123.105 39.8862C123.151 40.0219 124.083 41.5965 124.03 41.6958C122.375 43.1823 119.93 45.735 117.119 46.6224C116.446 46.8348 114.536 47.2823 113.959 47.5349C113.83 47.5913 113.64 47.6487 113.426 47.7086C121.556 43.0434 118.672 39.871 118.681 39.2615C118.711 37.3325 118.119 35.5882 117.336 33.8114C116.568 32.0666 115.499 30.4659 114.435 28.9279C114.065 28.3929 113.583 27.9482 113.067 27.5297C114.322 27.3789 115.524 26.5761 116.348 25.4426C116.364 25.4756 116.379 25.5088 116.395 25.5433C116.402 25.5583 116.409 25.573 116.416 25.588C118.887 30.7686 122.212 37.3202 123.103 39.8853L123.105 39.8862Z" fill="#D8CDCB"/>
<path id="Vector_30" d="M108.437 34.5329C107.628 35.3337 106.429 35.9296 105.777 36.7321C107.581 37.9002 112.322 46.1672 113.297 47.7456C112.774 47.8871 112.156 48.0386 111.916 48.1982C108.824 42.2016 105.103 37.6244 103.134 36.6975C103.126 36.6934 103.118 36.6902 103.111 36.6858C103.913 36.5432 104.767 36.2073 105.369 35.9287C107.648 34.8771 109.345 33.1718 111.237 31.7341C110.488 32.7275 109.371 33.6084 108.438 34.5314L108.437 34.5329Z" fill="#D8CDCB"/>
</g>
</g>
<path id="Vector_31" d="M103.056 18.7704C103.374 20.3831 105.749 28.0041 104.617 29.4922C103.947 30.3729 101.742 27.6675 100.978 26.8305C100.485 26.2896 100.009 25.5455 99.6018 24.8012C98.9694 23.6441 98.4992 22.4835 98.3764 22.0781L97.9677 20.8545L97.2537 18.7124L96.2448 15.6901C96.2531 15.7021 96.5903 15.7574 97.0251 15.8652C97.0925 15.882 97.1602 15.8999 97.2307 15.9184C97.7028 16.0459 98.2391 16.2309 98.5832 16.4843C99.4441 17.1186 102.099 18.4287 103.056 18.7719L103.056 18.7704Z" fill="#FFA471"/>
<g id="Group_20">
<path id="Vector_32" d="M123.725 61.9947C124.628 63.59 120.9 67.9008 120.823 67.9458C119.217 68.875 116.215 70.4633 114.657 68.8646C114.636 68.8444 114.616 68.8227 114.599 68.8015C114.585 68.7857 114.572 68.7699 114.56 68.7526C114.53 68.7141 114.505 68.6743 114.484 68.6336C114.377 68.4302 114.367 68.2021 114.493 67.9518C114.515 67.9098 114.709 67.2855 114.73 67.2012C114.78 66.9969 114.844 66.7066 114.936 66.3506C114.964 66.2411 114.995 66.1258 115.028 66.0048C115.175 65.4806 115.377 64.8541 115.669 64.1766C115.773 63.9322 115.984 63.6899 116.2 63.4503C116.203 63.4454 116.206 63.4421 116.211 63.4384C116.216 63.4332 116.221 63.4279 116.224 63.4231C116.24 63.4059 116.255 63.3878 116.271 63.3719C116.296 63.3446 116.32 63.3161 116.345 63.2889C116.372 63.2597 116.399 63.2294 116.424 63.1994C116.437 63.1844 116.449 63.1694 116.462 63.1544C116.487 63.1244 116.511 63.0947 116.536 63.0651C116.55 63.047 116.565 63.0302 116.578 63.0124C116.591 62.9947 116.604 62.977 116.618 62.9593C116.626 62.948 116.634 62.9354 116.643 62.9241C116.685 62.8652 116.723 62.806 116.754 62.7475C116.822 62.6196 116.886 62.4878 116.946 62.3531C116.996 62.243 117.045 62.1332 117.093 62.0237C117.248 61.6766 117.404 61.3419 117.615 61.0882C117.658 61.0368 117.709 60.9832 117.766 60.9279C117.834 60.8634 117.909 60.7954 117.993 60.7292C118.591 60.2492 119.55 59.7821 120.171 60.0322L121.439 60.2506C122.521 60.5628 123.275 61.2013 123.723 61.9938L123.725 61.9947Z" fill="#FFA471"/>
<path id="Vector_33" d="M123.491 65.755C121.953 67.8055 121.183 67.9899 121.17 67.9497C121.091 67.7193 120.9 67.581 120.744 67.2682C120.697 67.1738 120.656 67.0625 120.625 66.9277C120.481 66.2985 120.572 65.1549 121.478 62.7308C121.577 62.4671 118.891 61.9609 117.769 60.9272C117.557 60.7325 116.542 59.1454 118.154 57.9709C118.448 57.757 125.406 60.3311 125.016 63.5309C124.947 64.1013 123.96 65.1263 123.491 65.755Z" fill="#2D140A"/>
<path id="Vector_34" d="M116.65 62.159C116.978 62.075 117.12 63.1043 117.428 62.7899L117.583 62.5884C117.575 62.3457 116.93 61.9396 116.65 62.1602L116.65 62.159Z" fill="#1E0D07"/>
<g id="Group_21">
<path id="Vector_35" d="M122.361 67.2708C122.117 67.5991 121.351 68.0673 120.908 68.1707C120.81 68.1943 120.325 67.9852 120.286 67.9493C120.248 67.9142 120.231 67.8647 120.229 67.8058C120.223 67.5703 120.457 67.1777 120.623 66.928C120.683 66.8397 120.735 66.768 120.764 66.7279C121.022 66.3777 121.467 65.7207 121.989 65.8027C122.654 65.9069 122.693 66.8207 122.359 67.2712L122.361 67.2708Z" fill="#FFA471"/>
<path id="Vector_36" d="M121.168 66.8182L121.523 66.246C121.84 65.6801 122.456 66.4923 122.349 66.9105C122.241 67.3299 121.554 67.5296 121.18 67.5705C121.431 67.485 122.017 67.2869 121.993 66.9104C121.952 66.2678 121.341 66.71 121.169 66.8178L121.168 66.8182Z" fill="#E07F4F"/>
</g>
<path id="Vector_37" d="M116.747 65.1279L116.739 65.1507C116.229 65.4137 115.721 65.0431 115.801 64.5163C115.952 64.9566 116.358 65.0296 116.747 65.1279Z" fill="#E07F4F"/>
<g id="Group_22">
<path id="Vector_38" d="M119.711 63.925C119.566 63.5332 118.577 63.7066 118.726 63.2866L118.853 63.0656C119.149 63.021 119.766 63.5569 119.712 63.9247L119.711 63.925Z" fill="#1E0D07"/>
<g id="Group_23">
<path id="Vector_39" d="M118.257 64.539C118.304 64.5833 118.377 64.6461 118.468 64.716C118.598 64.8138 118.767 64.9232 118.955 65.0005C119.105 65.0622 119.268 65.1037 119.433 65.1031C119.433 65.1031 119.433 65.1007 119.434 65.0965C119.437 65.0237 119.45 64.347 119.116 64.1968C119.027 64.1562 118.918 64.1543 118.806 64.1818C118.799 64.1837 118.792 64.1856 118.784 64.1879C118.778 64.1895 118.773 64.1908 118.767 64.1924C118.758 64.1946 118.75 64.1969 118.742 64.2003C118.734 64.2026 118.725 64.2048 118.717 64.2095C118.71 64.2114 118.703 64.2145 118.698 64.2173C118.566 64.2708 118.431 64.3623 118.313 64.4817C118.294 64.4995 118.277 64.5197 118.259 64.5387L118.257 64.539Z" fill="white"/>
<path id="Vector_40" d="M118.311 64.4805C118.558 64.3267 118.832 64.2623 119.012 64.3431C119.231 64.4417 119.366 64.8064 119.433 65.0953C119.435 65.0225 119.449 64.3458 119.115 64.1956C119.026 64.155 118.917 64.1531 118.805 64.1806C118.798 64.1825 118.791 64.1844 118.782 64.1867C118.776 64.1883 118.771 64.1896 118.766 64.1912C118.757 64.1934 118.749 64.1957 118.741 64.1991C118.732 64.2014 118.724 64.2036 118.716 64.2083C118.709 64.2102 118.702 64.2133 118.696 64.2161C118.564 64.2696 118.43 64.3611 118.311 64.4805Z" fill="#2D140A"/>
<path id="Vector_41" d="M118.554 64.5018C118.513 64.5735 118.485 64.6455 118.468 64.7146C118.598 64.8125 118.767 64.9218 118.955 64.9992C119.007 64.9479 119.054 64.8862 119.097 64.8142C119.243 64.5597 119.24 64.2834 119.09 64.1958C118.94 64.1097 118.702 64.2458 118.555 64.5003L118.554 64.5018Z" fill="#2D140A"/>
<path id="Vector_42" d="M118.922 64.6032C118.891 64.6565 118.892 64.7157 118.923 64.733C118.955 64.7515 119.005 64.7226 119.036 64.6681C119.066 64.6148 119.066 64.5568 119.034 64.5383C119.002 64.5197 118.952 64.5486 118.922 64.602L118.922 64.6032Z" fill="white"/>
</g>
</g>
<g id="Group_24">
<path id="Vector_43" d="M116.2 63.4489C116.2 63.4489 116.209 63.4557 116.212 63.4587C116.325 63.5535 116.473 63.6596 116.64 63.7333C116.774 63.7928 116.922 63.8318 117.075 63.8309C117.075 63.8309 117.074 63.8285 117.075 63.8242C117.083 63.7537 117.152 63.0946 116.854 62.949C116.793 62.92 116.722 62.9109 116.643 62.9215C116.635 62.9328 116.627 62.9453 116.618 62.9567C116.592 62.9921 116.564 63.0279 116.535 63.064C116.44 63.1824 116.332 63.3016 116.224 63.4208C116.216 63.4305 116.207 63.4394 116.199 63.448L116.2 63.4489Z" fill="white"/>
<path id="Vector_44" d="M116.537 63.0646C116.617 63.0573 116.689 63.0676 116.748 63.0957C116.812 63.1264 116.865 63.1856 116.909 63.2601C117 63.4151 117.051 63.6371 117.078 63.8261C117.086 63.7556 117.154 63.0964 116.856 62.9508C116.795 62.9219 116.724 62.9128 116.646 62.9234C116.637 62.9347 116.629 62.9472 116.62 62.9585C116.594 62.9939 116.566 63.0297 116.537 63.0658L116.537 63.0646Z" fill="#2D140A"/>
<path id="Vector_45" d="M116.227 63.4214C116.222 63.4341 116.218 63.4469 116.214 63.4596C116.327 63.5545 116.475 63.6605 116.642 63.7343C116.694 63.6854 116.745 63.6242 116.789 63.5543C116.851 63.4552 116.892 63.3528 116.909 63.2604C116.936 63.1205 116.912 63.0031 116.833 62.9533C116.776 62.917 116.702 62.9216 116.62 62.9588C116.594 62.9942 116.566 63.03 116.537 63.0661C116.442 63.1845 116.334 63.3037 116.226 63.4229L116.227 63.4214Z" fill="#2D140A"/>
<path id="Vector_46" d="M116.644 63.3481C116.61 63.4009 116.606 63.4574 116.634 63.4745C116.662 63.4916 116.711 63.4642 116.744 63.4114C116.778 63.3586 116.782 63.3021 116.754 63.285C116.726 63.268 116.677 63.2953 116.644 63.3481Z" fill="white"/>
</g>
<path id="Vector_47" d="M115.216 66.1197C115.199 66.2066 115.182 66.2939 115.163 66.38C115.158 66.406 115.152 66.4321 115.147 66.4578C115.375 66.5605 115.628 66.6292 115.825 66.6874C116.132 66.7792 116.832 66.8752 117.051 66.5924C116.395 66.7901 115.766 66.4558 115.215 66.1185L115.216 66.1197Z" fill="#E07F4F"/>
<path id="Vector_48" d="M126.087 61.871C125.731 61.5408 125.222 61.4285 124.738 61.4667C124.871 61.1771 125.066 60.9366 125.226 60.6656C124.915 60.66 124.697 60.9322 124.533 61.2084C124.412 60.7598 123.981 60.3351 123.636 60.0537C123.79 60.452 124.172 61.3812 123.895 61.552L124.253 63.1178C124.779 62.982 125.246 63.4834 125.603 63.9951C125.791 63.4702 125.606 62.531 125.089 62.1976C125.405 62.0446 125.759 61.942 126.087 61.8698L126.087 61.871Z" fill="#2D140A"/>
</g>
<g id="Group_25">
<path id="Vector_49" d="M98.2468 83.9532C95.9921 84.9712 93.8737 85.1417 91.832 85.0377C91.5834 85.0257 91.3348 85.0085 91.0879 84.9883C87.5438 84.7029 84.2162 83.7832 80.7896 85.2931C82.4803 88.0463 82.9045 86.1832 82.6421 89.4842C82.6002 90.0086 82.5117 92.0125 82.3913 92.6894C81.78 96.1264 81.3959 101.255 81.5231 103.934C80.4537 103.955 79.7567 103.755 79.0526 103.328C80.606 100.708 73.9154 84.5244 74.0322 83.6951C74.2646 82.0458 77.7434 79.5563 79.5002 78.8896C83.6974 77.2983 89.3749 75.7242 93.9258 75.7643L98.2457 83.9535L98.2468 83.9532Z" fill="#FFA471"/>
<g id="Group_26">
<path id="Vector_50" d="M83.9779 103.035C83.3867 103.902 82.9587 104.121 82.2934 104.456C81.8384 104.685 81.399 104.756 81.0097 105.12C80.7289 105.381 80.614 105.724 80.3732 106.009C79.7891 106.7 78.8819 106.885 77.9899 106.931C77.3247 106.965 75.9175 107.028 75.5423 106.337C75.3948 106.065 75.4819 105.853 75.6905 105.683C76.1432 105.311 77.1614 105.133 77.5269 104.939C78.3458 104.506 78.561 102.294 79.1352 100.88C79.1352 100.88 79.9821 102.047 80.4481 102.185C81.6191 102.534 81.5375 100.408 81.7279 100.687C82.2797 100.829 82.7962 101.252 83.2049 101.742C83.5604 102.167 83.8334 102.645 83.9794 103.036L83.9779 103.035Z" fill="#1E0D07"/>
<path id="Vector_51" d="M83.978 103.036C83.3868 103.902 82.9588 104.121 82.2935 104.456C81.8385 104.685 81.3991 104.757 81.0097 105.12C80.729 105.381 80.6141 105.724 80.3732 106.009C79.7892 106.7 78.882 106.885 77.99 106.931C77.3248 106.965 75.9176 107.029 75.5423 106.338C75.3948 106.065 75.482 105.854 75.6906 105.683C76.2836 106.521 78.6332 106.062 79.3991 105.628C80.0043 105.284 80.2111 104.637 80.7701 104.202C81.3494 103.751 81.9075 103.327 82.3911 102.798C82.6672 102.496 82.9653 102.127 83.2041 101.744C83.5596 102.169 83.8326 102.647 83.9786 103.038L83.978 103.036Z" fill="#E6EAEF"/>
</g>
<path id="Vector_52" d="M91.0891 84.988C87.5449 84.7026 84.2173 83.7829 80.7908 85.2928C82.4815 88.046 83.9207 87.6849 83.6571 90.9862C83.6153 91.5105 83.5256 92.125 83.4052 92.8019C83.394 92.0842 83.2841 91.3724 83.0232 90.6765C82.3771 88.9506 80.2896 84.8701 77.8309 85.5535C81.0689 83.1195 85.1186 82.4636 88.7499 80.9891L91.772 84.8192C91.5543 84.8788 91.3256 84.9362 91.0894 84.9892L91.0891 84.988Z" fill="#E07F4F"/>
</g>
<path id="Vector_53" d="M101.24 80.3006C99.6305 77.7578 100.934 76.4571 99.5829 73.7791C99.5829 73.7791 89.9066 75.5043 85.9852 76.711C86.2367 77.1129 89.1098 80.5832 88.4488 83.0628C88.6365 83.4277 88.7553 83.7993 88.774 84.1759C90.9244 83.9233 93.945 84.2343 96.1314 84.2312C98.5615 84.2272 99.9367 83.0323 101.655 81.003C101.518 80.7549 101.379 80.5224 101.24 80.3006Z" fill="#104375"/>
<g id="Group_27">
<g id="Group_28">
<path id="Vector_54" d="M95.0501 45.498L93.7511 45.8461L96.6027 77.6214L101.72 96.7188L105.17 95.7944L98.9371 75.9181L95.0501 45.498Z" fill="#EAEBF9"/>
<path id="Vector_55" d="M96.2302 45.1818L94.9384 45.528L97.8051 77.4797L102.877 96.4088L106.32 95.4863L100.14 75.7764L96.2302 45.1818Z" fill="#838496"/>
</g>
<g id="Group_29">
<path id="Vector_56" d="M106.067 92.6806L100.569 94.1537L101.422 97.3388L106.92 95.8657L106.067 92.6806Z" fill="#120E0F"/>
<path id="Vector_57" d="M102.04 93.7594L100.569 94.1537L101.422 97.3388L102.894 96.9445L102.04 93.7594Z" fill="#493A3F"/>
</g>
</g>
<g id="Group_30">
<path id="Vector_58" d="M103.921 70.6622C103.346 69.5669 102.865 68.5756 102.499 67.8666C101.352 65.6381 100.954 62.7809 100.637 60.2435C100.452 58.75 100.109 56.5344 100.133 54.745C100.142 54.036 100.209 53.3926 100.366 52.8891C100.857 52.6596 101.375 52.5415 101.946 52.5831C102.919 55.0554 103.18 56.5428 103.869 58.4042C104.341 59.6804 105.492 65.0457 105.856 65.2383L108.936 68.0087C109.557 68.7357 110.26 69.3955 110.973 70.0965L103.92 70.6625L103.921 70.6622Z" fill="#FFA471"/>
<path id="Vector_59" d="M104.663 70.6026L103.921 70.6621C103.346 69.5669 102.865 68.5756 102.499 67.8666C101.352 65.638 100.954 62.7809 100.637 60.2434C100.452 58.75 100.109 56.5343 100.133 54.7449C100.369 56.8358 100.789 59.1031 101.184 61.2198C101.406 62.411 101.578 63.6977 101.912 64.8768C102.123 65.6185 102.437 67.5623 103.421 66.9954C103.71 66.8293 103.909 66.4085 104.13 66.1546C103.973 66.7961 103.834 67.5192 103.386 68.0171C103.729 68.8173 104.155 69.7074 104.662 70.6029L104.663 70.6026Z" fill="#E07F4F"/>
<path id="Vector_60" d="M102.301 49.2483C101.352 49.8067 99.9683 49.5599 99.6304 50.8584C99.4307 51.6275 100.496 54.2182 101.162 54.268L102.334 53.7142C102.087 52.8883 102.13 52.3056 102.732 51.5833C103.456 50.7166 102.908 50.1298 102.3 49.2471L102.301 49.2483Z" fill="#FFA471"/>
</g>
<g id="Group_31">
<path id="Vector_61" d="M125.881 78.169L97.8609 76.9194L98.4537 79.5633L127.332 82.7268L125.881 78.169Z" fill="#EAEBF9"/>
<path id="Vector_62" d="M129.001 79.4176L100.981 78.1679L101.574 80.8118L130.452 83.9754L129.001 79.4176Z" fill="#838496"/>
</g>
<g id="Group_32">
<path id="Vector_63" d="M107.068 80.0359C107.068 80.0359 76.7533 90.1841 75.2117 91.702C73.6701 93.22 70.8693 94.3379 70.5286 99.6762C70.1879 105.015 72.6537 111.902 72.6537 111.902L69.4776 112.937C69.4776 112.937 66.9519 103.094 66.8994 101.662C66.8297 99.7481 67.8319 94.2325 70.2631 91.7401C72.6944 89.2477 76.1335 87.8659 79.7596 86.5256C83.3858 85.1853 107.659 76.2884 107.659 76.2884L107.07 80.0368L107.068 80.0359Z" fill="#EAEBF9"/>
<path id="Vector_64" d="M107.986 80.1588C107.986 80.1588 77.671 90.307 76.1294 91.8249C74.5878 93.3428 71.7869 94.4607 71.4462 99.7991C71.1055 105.137 73.5714 112.025 73.5714 112.025L70.3953 113.06C70.3953 113.06 67.9429 103.213 67.8171 101.785C67.6415 99.8065 68.7495 94.3554 71.1808 91.863C73.6132 89.3702 77.0511 87.9888 80.6773 86.6485C84.3034 85.3081 108.577 76.4113 108.577 76.4113L107.988 80.1596L107.986 80.1588Z" fill="#838496"/>
<g id="Group_33">
<path id="Vector_65" d="M73.0748 108.843L68.5297 110.061L69.5201 113.758L74.0653 112.54L73.0748 108.843Z" fill="#120E0F"/>
<path id="Vector_66" d="M69.6034 109.774L68.5297 110.061L69.5201 113.758L70.5938 113.47L69.6034 109.774Z" fill="#493A3F"/>
</g>
</g>
<g id="Group_34">
<path id="Vector_67" d="M70.4797 87.9111L71.5466 89.822L79.4373 92.8555L127.965 73.2634L127.475 71.8452L118.168 72.1897L70.4797 87.9111Z" fill="#493A35"/>
<path id="Vector_68" d="M70.4798 87.911L79.4229 91.2529L127.475 71.845L116.821 70.0071L70.4798 87.911Z" fill="#1E0D07"/>
</g>
<path id="Vector_69" d="M120.949 45.0211C120.681 44.6096 120.211 44.3797 119.742 44.4578C118.862 44.6044 118.879 45.7112 118.795 46.4247L120.899 48.1959C120.947 48.1429 120.877 47.6886 120.913 47.4908C120.964 47.1974 121.082 46.9077 121.143 46.6129C121.251 46.0929 121.242 45.4689 120.949 45.0211Z" fill="#FFA471"/>
<g id="Group_35">
<g id="Group_36">
<path id="Vector_70" d="M103.805 80.16C102.081 81.9677 100.058 82.9675 97.9687 83.6924C97.7138 83.7813 97.4589 83.8651 97.2017 83.9456C93.521 85.111 89.7273 85.6248 87.0896 88.3388C87.1139 88.3529 87.138 88.3658 87.1623 88.38C89.3173 89.5971 89.8981 90.135 90.5415 91.1461C90.8028 91.5557 91.0748 92.0436 91.4654 92.6867C92.3667 94.1663 92.5973 96.5321 97.646 104.086C96.5905 104.533 95.5963 105.16 94.6735 105.062C94.8696 102.113 78.7696 90.2652 78.4577 89.4799C77.8371 87.9212 80.2567 85.2463 81.3769 83.7755C83.1909 81.3956 90.8143 76.7732 95.374 74.9868L103.806 80.1597L103.805 80.16Z" fill="#FFA471"/>
<path id="Vector_71" d="M96.5416 102.965C96.5416 102.965 96.5416 102.965 96.5456 102.968C96.5456 102.968 96.5456 102.968 96.5425 102.969L96.5416 102.965Z" fill="#1E0D07"/>
<g id="Group_37">
<path id="Vector_72" d="M99.1699 104.132C98.7172 105.083 98.3042 105.373 97.6581 105.818C97.2168 106.122 96.7583 106.271 96.4157 106.694C96.1698 106.998 96.1186 107.354 95.9196 107.675C95.4385 108.454 94.4989 108.796 93.5462 108.998C92.8352 109.149 91.3321 109.459 90.7786 108.85C90.56 108.61 90.6097 108.388 90.7978 108.184C91.2056 107.741 92.2667 107.387 92.6198 107.132C93.4104 106.565 93.1658 104.362 93.482 102.878L95.1786 103.922C97.1963 103.659 96.1398 101.719 96.0913 101.668C96.7175 101.709 97.5094 102.594 98.0566 103.002C98.5316 103.355 98.9288 103.774 99.1708 104.13L99.1699 104.132Z" fill="#1E0D07"/>
<path id="Vector_73" d="M99.1701 104.132C98.7174 105.083 98.3044 105.373 97.6582 105.818C97.2169 106.122 96.7585 106.271 96.4159 106.694C96.1699 106.998 96.1187 107.354 95.9198 107.675C95.4387 108.454 94.499 108.796 93.5464 108.998C92.8354 109.149 91.3323 109.459 90.7788 108.85C90.5602 108.61 90.6099 108.388 90.798 108.184C91.6185 108.897 94.054 108.036 94.786 107.475C95.3645 107.031 95.4483 106.361 95.958 105.838C96.4856 105.296 96.9963 104.781 97.4049 104.178C97.6379 103.835 97.8788 103.421 98.056 103.003C98.5309 103.357 98.9281 103.775 99.1701 104.132Z" fill="#E6EAEF"/>
</g>
<path id="Vector_74" d="M97.2017 83.9455C93.521 85.111 89.7273 85.6247 87.0896 88.3388C87.1139 88.3529 87.1379 88.3658 87.1623 88.3799C89.3173 89.597 89.8981 90.135 90.5415 91.1461C87.7702 89.0524 86.0016 88.4434 84.2736 89.7547C86.2452 86.2947 89.9455 84.0901 92.8039 81.3273L97.7956 83.5208C97.6097 83.6609 97.4114 83.803 97.2017 83.9455Z" fill="#E07F4F"/>
</g>
<g id="Group_38">
<path id="Vector_75" d="M104.661 78.8656C103.436 81.3753 102.295 82.9793 99.4879 83.8306C96.9614 84.5966 93.3548 85.358 90.9649 86.3464C90.7975 85.9852 90.5068 85.6673 90.1336 85.3818C89.6107 84.6478 89.0295 83.9501 88.3392 83.3151C88.0666 83.0646 87.7768 82.8122 87.4715 82.5692C86.8115 82.0473 86.0744 81.5731 85.259 81.272C84.8985 81.1391 84.513 80.9756 84.1137 80.8466C87.4841 78.3888 96.5161 74.2734 96.5161 74.2734C99.0801 76.322 101.107 76.5189 103.919 78.3489C104.164 78.5078 104.411 78.6787 104.661 78.8644L104.661 78.8656Z" fill="#2560B7"/>
<path id="Vector_76" d="M104.661 78.8655C103.436 81.3753 102.295 82.9792 99.4879 83.8306C96.9614 84.5965 93.3548 85.3579 90.9649 86.3463C90.7975 85.9851 90.5068 85.6672 90.1336 85.3817C89.6107 84.6478 89.0295 83.95 88.3392 83.3151C88.0666 83.0645 87.7768 82.8122 87.4715 82.5691C87.9703 82.8106 88.4704 83.0762 88.9216 83.3318C89.6909 83.7677 90.3641 84.4395 91.1227 84.8743C91.7884 85.2542 92.2868 85.1348 93.1307 84.8429C94.5024 84.3684 95.9702 83.8642 97.3664 83.2465C98.7041 82.6547 100.094 82.076 101.309 81.2862C102.595 80.4507 103.218 79.3566 103.92 78.35C104.164 78.5089 104.411 78.6798 104.661 78.8655Z" fill="#104375"/>
</g>
</g>
<g id="Group_39">
<g id="Group_40">
<path id="Vector_77" d="M90.4515 53.3041C91.2112 56.1392 90.0731 58.9426 87.8896 59.8241C87.7471 59.8817 87.5998 59.9314 87.4477 59.9722C84.9792 60.6336 82.3218 58.7209 81.5125 55.7005C80.7032 52.6802 82.0478 49.6938 84.5163 49.0324C84.6685 48.9916 84.8209 48.9611 84.9731 48.9397C87.3045 48.6102 89.6922 50.4702 90.4518 53.3053L90.4515 53.3041Z" fill="#838487"/>
<path id="Vector_78" d="M90.4513 53.304C91.211 56.1391 90.0729 58.9425 87.8894 59.8241C85.558 60.1536 83.1704 58.2936 82.4107 55.4585C81.6511 52.6234 82.7888 49.8188 84.9726 48.9384C87.304 48.6089 89.6916 50.4689 90.4513 53.304Z" fill="#575759"/>
</g>
<g id="Group_41">
<path id="Vector_79" d="M93.573 52.4676C94.567 56.1771 93.2573 59.7974 90.6303 60.8881C90.4582 60.96 90.2805 61.0205 90.0971 61.0697C87.1194 61.8675 83.8462 59.3102 82.7871 55.3576C81.728 51.4051 83.284 47.5538 86.2618 46.7559C86.4451 46.7067 86.6293 46.6703 86.8143 46.6465C89.6347 46.2775 92.579 48.758 93.573 52.4676Z" fill="#575759"/>
<path id="Vector_80" d="M93.5733 52.4676C94.5673 56.1772 93.2576 59.7975 90.6306 60.8882C87.8102 61.2571 84.8658 58.7767 83.8719 55.0671C82.8779 51.3575 84.1875 47.7372 86.8146 46.6465C89.635 46.2776 92.5793 48.7581 93.5733 52.4676Z" fill="#838487"/>
</g>
<g id="Group_42">
<path id="Vector_81" d="M94.9834 52.0897C96.1798 56.5546 94.8331 60.8514 91.9645 62.0855C91.7769 62.1667 91.5818 62.2344 91.3817 62.288C88.1175 63.1626 84.4381 60.0141 83.1634 55.2569C81.8887 50.4996 83.5006 45.932 86.7648 45.0573C86.9649 45.0037 87.1677 44.9649 87.3707 44.9414C90.472 44.5758 93.7867 47.6236 94.9834 52.0897Z" fill="#838487"/>
<path id="Vector_82" d="M94.9832 52.0896C96.1795 56.5546 94.8328 60.8514 91.9642 62.0854C88.8629 62.451 85.5482 59.4032 84.3519 54.9383C83.1555 50.4734 84.5019 46.1754 87.3705 44.9413C90.4718 44.5757 93.7865 47.6235 94.9832 52.0896Z" fill="#575759"/>
</g>
<g id="Group_43">
<path id="Vector_83" d="M91.9768 52.8953C92.2736 54.0031 91.8481 55.0944 91.0188 55.4313C90.9644 55.4536 90.909 55.4723 90.8515 55.4877C89.9132 55.7392 88.897 54.9853 88.5808 53.8053C88.2646 52.6253 88.7687 51.4627 89.7057 51.2116C89.7632 51.1962 89.8217 51.1844 89.8788 51.1769C90.7658 51.0552 91.6796 51.7863 91.9768 52.8953Z" fill="#493A35"/>
<path id="Vector_84" d="M91.977 52.8954C92.2739 54.0032 91.8483 55.0944 91.019 55.4314C90.132 55.553 89.2182 54.8219 88.9214 53.7141C88.6245 52.6063 89.0501 51.5151 89.879 51.1769C90.766 51.0553 91.6799 51.7863 91.977 52.8954Z" fill="#281F1D"/>
</g>
</g>
<g id="Group_44">
<g id="Group_45">
<path id="Vector_85" d="M122.756 40.2503L121.475 40.5936L125.986 78.8885L132.105 101.722L135.555 100.798L128.268 76.9879L122.756 40.2503Z" fill="#EAEBF9"/>
<path id="Vector_86" d="M123.937 39.9341L122.662 40.2757L127.197 78.7779L133.262 101.412L136.705 100.489L129.479 76.8786L123.937 39.9341Z" fill="#838496"/>
</g>
<g id="Group_46">
<path id="Vector_87" d="M136.311 97.1591L130.813 98.6323L131.833 102.44L137.331 100.967L136.311 97.1591Z" fill="#120E0F"/>
<path id="Vector_88" d="M132.285 98.238L130.813 98.6323L131.833 102.44L133.305 102.046L132.285 98.238Z" fill="#493A3F"/>
</g>
</g>
<g id="Group_47">
<g id="Group_48">
<path id="Vector_89" d="M119.714 74.8902C118.126 76.1023 115.08 76.5987 113.674 76.8865C112.34 77.1587 111.001 77.3604 109.655 77.592C109.234 77.6648 108.81 77.7244 108.391 77.8211C104.896 78.6287 102.592 80.8809 102.592 80.8809C102.592 80.8809 102.332 80.5392 101.902 80.0251C100.959 78.8908 98.6728 76.3358 97.0374 75.3327C96.1586 74.7946 94.556 74.7522 95.9215 73.9815C96.8356 72.8393 102.464 69.913 104.047 69.2491C104.468 69.0717 104.834 68.908 105.17 68.7522C105.231 68.7244 105.289 68.6972 105.348 68.6696C105.425 68.6337 105.5 68.5981 105.574 68.5628C105.825 68.444 106.064 68.3297 106.306 68.2183C106.837 67.9716 107.379 67.7374 108.078 67.491C108.235 67.4359 108.399 67.3817 108.57 67.3282C108.872 67.2343 109.192 67.1459 109.528 67.065C111.102 66.6869 112.959 66.5078 114.339 66.9902C114.763 67.1383 117.4 67.9748 117.43 67.9837C117.848 68.1075 117.904 68.3014 117.859 68.4193L119.045 68.8401C119.597 69.2529 120.075 69.6753 120.379 70.3276C120.5 70.5878 120.601 70.8444 120.682 71.0986C121.164 72.6106 120.916 73.9753 119.715 74.8913L119.714 74.8902Z" fill="#FF1010"/>
<path id="Vector_90" d="M119.715 74.89C118.126 76.1022 115.08 76.5986 113.674 76.8864C112.34 77.1586 111.991 77.6492 110.645 77.8811L102.867 81.8268C102.867 81.8268 102.332 80.5391 101.902 80.0238C103.05 78.543 104.431 77.3776 106.319 76.5908C106.092 76.4956 105.768 76.2226 105.523 76.1477C106.123 75.9959 106.917 75.9431 107.529 75.9171C107.103 75.495 106.688 75.0067 106.371 74.5152C108.963 75.4427 111.121 75.6056 113.859 74.7149C116.41 73.8854 118.748 72.9805 120.518 70.9398L120.683 71.0982C121.165 72.6101 120.917 73.9749 119.716 74.8909L119.715 74.89Z" fill="#CE0B0B"/>
</g>
<path id="Vector_91" d="M112.464 71.3576C111.897 71.2645 108.276 70.1257 107.75 69.9456C106.88 69.6463 105.98 69.2506 105.171 68.7519C105.232 68.724 105.29 68.6968 105.349 68.6693C105.426 68.6334 105.501 68.5977 105.575 68.5624C105.826 68.4437 106.065 68.3294 106.307 68.218C107.366 69.0379 111.286 70.8107 112.464 71.3576Z" fill="#CE0B0B"/>
</g>
<path id="Vector_92" d="M131.226 41.4204L90.7823 52.2573C90.3078 52.3844 90.0075 52.7975 90.1103 53.1812L90.1848 53.4591C90.2876 53.8428 90.7554 54.05 91.2287 53.9232L131.672 43.0863C132.147 42.9592 132.447 42.5461 132.345 42.1624L132.27 41.8846C132.167 41.5008 131.699 41.2936 131.226 41.4204Z" fill="#493A35"/>
<g id="Group_49">
<g id="Group_50">
<path id="Vector_93" d="M122.966 54.316C123.522 56.8113 124.108 59.6362 123.778 62.1199C123.3 65.7146 122.517 75.5868 117.801 75.4131C116.292 75.3571 115.489 74.6313 115.144 73.6498C114.833 72.7687 114.893 71.6815 115.139 70.6886C115.755 68.2121 117.002 66.4005 117.761 64.4128L119.73 60.7705C120.008 60.4664 119.287 55.0273 119.303 53.6668C119.325 51.6833 119.069 50.1943 119.155 47.5387C119.679 47.3081 120.207 47.2453 120.746 47.2968C121.064 47.7197 121.344 48.302 121.591 48.967C122.216 50.6443 122.639 52.8463 122.966 54.3148L122.966 54.316Z" fill="#FFA471"/>
<path id="Vector_94" d="M119.898 46.0505C119.348 45.9648 118.432 45.8441 117.68 46.4504C117.701 46.0695 117.309 45.5195 117.112 45.201C116.686 45.1063 116.62 45.7802 116.511 46.1407C116.321 46.7707 116.285 47.1747 116.534 47.38C117.014 47.7774 117.126 47.714 117.64 47.745C117.957 47.7644 118.811 48.2099 119.161 49.5162L119.337 48.3745C119.508 47.7319 120.277 47.54 120.986 47.7974C120.836 47.4972 120.913 46.2068 119.901 46.0499L119.898 46.0505Z" fill="#FFA471"/>
</g>
<path id="Vector_95" d="M122.966 54.316C123.522 56.8113 124.108 59.6362 123.778 62.1199C123.3 65.7146 122.517 75.5868 117.801 75.4131C116.292 75.3571 115.489 74.6312 115.144 73.6498C115.595 73.8872 116.111 74.0004 116.802 73.8502C121.492 72.8345 122.748 66.5252 122.993 62.5597C122.403 62.2408 122.029 61.6075 121.665 61.0552C121.958 61.2202 122.288 61.5496 122.616 61.6099C123.735 61.8143 123.376 59.8773 123.324 59.1087C123.242 57.8854 122.971 56.6159 122.78 55.4191C122.44 53.2928 122.073 51.0165 121.592 48.9679C122.217 50.6451 122.641 52.8472 122.967 54.3157L122.966 54.316Z" fill="#E07F4F"/>
</g>
<g id="Group_51">
<path id="Vector_96" d="M118.557 44.3368C117.772 43.8755 116.377 45.8867 117.264 46.0395C117.726 46.1194 117.797 45.3914 118.019 45.0339C118.249 44.6655 118.616 44.5144 119.019 44.3536L118.557 44.3368Z" fill="#FFA471"/>
<path id="Vector_97" d="M119.328 44.1845C118.543 43.7232 117.147 45.7343 118.035 45.8872C118.497 45.9671 118.567 45.2391 118.79 44.8816C119.02 44.5131 119.387 44.362 119.789 44.2013L119.328 44.1845Z" fill="#FFA471"/>
<path id="Vector_98" d="M120.064 44.1006C119.279 43.6392 117.884 45.6504 118.771 45.8033C119.233 45.8832 119.304 45.1551 119.527 44.7977C119.757 44.4292 120.124 44.2781 120.526 44.1174L120.064 44.1006Z" fill="#FFA471"/>
<path id="Vector_99" d="M120.677 44.1131C119.945 43.6827 118.644 45.5576 119.471 45.6997C119.902 45.7738 119.967 45.0963 120.175 44.7632C120.389 44.4197 120.731 44.279 121.107 44.1292L120.677 44.1131Z" fill="#FFA471"/>
</g>
<g id="Group_52">
<path id="Vector_100" d="M100.589 49.2647C99.9551 48.9345 99.1051 50.6706 99.7866 50.7407C100.142 50.777 100.122 50.1764 100.255 49.8701C100.391 49.5539 100.651 49.4069 100.938 49.2513L100.59 49.266L100.589 49.2647Z" fill="#FFA471"/>
<path id="Vector_101" d="M100.103 49.417C99.5767 49.143 98.8723 50.5836 99.4373 50.641C99.732 50.6716 99.7165 50.173 99.8255 49.9182C99.9388 49.6558 100.154 49.5337 100.393 49.4039L100.104 49.4155L100.103 49.417Z" fill="#FFA471"/>
<path id="Vector_102" d="M101.154 49.0916C100.519 48.7616 99.6698 50.4974 100.351 50.5675C100.706 50.6038 100.687 50.0032 100.819 49.697C100.955 49.3807 101.215 49.2337 101.502 49.0782L101.154 49.0928L101.154 49.0916Z" fill="#FFA471"/>
<path id="Vector_103" d="M101.698 48.978C100.757 48.5714 100.214 50.3839 100.895 50.454C101.25 50.4903 101.231 49.8896 101.363 49.5834C101.499 49.2672 101.821 49.2584 102.107 49.1017L101.698 48.9792L101.698 48.978Z" fill="#FFA471"/>
</g>
<path id="Vector_104" d="M102.815 49.2562C102.623 49.0871 101.867 49.2329 101.149 49.2398C100.087 49.251 100.948 50.0608 101.643 50.127C101.512 50.5169 101.124 50.7472 100.97 51.1353C100.585 52.106 100.907 52.2041 101.02 52.5514L102.175 52.9794C102.21 52.3899 102.902 51.5753 103.068 51.0357C103.193 50.6312 103.149 49.5483 102.815 49.2562Z" fill="#FFA471"/>
<g id="Group_53">
<path id="Vector_105" d="M96.2809 59.1174L96.5871 60.2601C96.0703 60.4501 95.6842 60.6722 95.1118 60.832C94.0626 61.1248 93.4486 60.6357 93.198 59.6237C93.1746 59.5269 93.1539 59.4254 93.1357 59.3194C92.9994 58.4845 92.8407 57.7535 93.0128 56.9003C93.131 56.3156 93.4297 56.5101 93.7718 56.9767C94.3051 57.7066 94.9426 59.0983 95.161 59.228C95.4497 59.3994 96.111 59.4182 96.2797 59.1177L96.2809 59.1174Z" fill="#EAEBF9"/>
<path id="Vector_106" d="M96.281 59.1173L96.5872 60.26C96.0704 60.4501 95.6843 60.6722 95.1119 60.832C94.0627 61.1247 93.4487 60.6356 93.1981 59.6237C93.4784 59.6247 93.7447 59.4489 93.9642 58.9788C94.242 58.381 94.0533 57.6386 93.7719 56.9766C94.3053 57.7065 94.9428 59.0982 95.1612 59.2279C95.4498 59.3994 96.1112 59.4181 96.2798 59.1177L96.281 59.1173Z" fill="#838496"/>
</g>
<g id="Group_54">
<g id="Group_55">
<path id="Vector_107" d="M136.994 40.7888C138.225 45.3813 136.461 49.9021 133.025 51.301C132.8 51.3922 132.568 51.4711 132.328 51.5353C128.441 52.5769 124.227 49.4544 122.916 44.5612C121.604 39.6681 123.693 34.8567 127.58 33.8151C127.819 33.7512 128.059 33.7024 128.3 33.6698C131.975 33.1634 135.764 36.1964 136.994 40.7888Z" fill="#575759"/>
<path id="Vector_108" d="M136.994 40.7889C138.225 45.3814 136.46 49.9022 133.025 51.3011C129.35 51.8075 125.561 48.7746 124.331 44.1821C123.1 39.5897 124.865 35.0688 128.3 33.6699C131.975 33.1635 135.764 36.1965 136.994 40.7889Z" fill="#838487"/>
</g>
<g id="Group_56">
<path id="Vector_109" d="M137.665 40.6092C138.688 44.4246 137.222 48.1796 134.368 49.3413C134.181 49.4173 133.989 49.4829 133.79 49.5362C130.561 50.4015 127.059 47.8073 125.97 43.7429C124.881 39.6785 126.616 35.6812 129.846 34.8159C130.045 34.7626 130.243 34.7223 130.444 34.6955C133.496 34.2748 136.643 36.7949 137.665 40.6092Z" fill="#575759"/>
<path id="Vector_110" d="M137.666 40.609C138.688 44.4244 137.222 48.1795 134.368 49.3411C131.315 49.7621 128.169 47.2429 127.147 43.4275C126.125 39.6121 127.59 35.8573 130.444 34.6954C133.496 34.2747 136.644 36.7948 137.666 40.609Z" fill="#838487"/>
</g>
<g id="Group_57">
<path id="Vector_111" d="M138.015 40.5154C138.797 43.4311 137.676 46.3019 135.495 47.1895C135.352 47.247 135.205 47.2968 135.053 47.3375C132.584 47.999 129.908 46.0164 129.076 42.9095C128.243 39.8026 129.569 36.7476 132.038 36.0862C132.19 36.0454 132.342 36.0149 132.495 35.9934C134.828 35.6724 137.233 37.5973 138.015 40.513L138.015 40.5154Z" fill="#575759"/>
<path id="Vector_112" d="M138.015 40.5155C138.797 43.4312 137.676 46.302 135.495 47.1896C133.161 47.5106 130.756 45.5857 129.975 42.67C129.193 39.7543 130.313 36.8835 132.495 35.9959C134.829 35.6749 137.234 37.5998 138.015 40.5155Z" fill="#838487"/>
</g>
<g id="Group_58">
<path id="Vector_113" d="M135.624 41.1561C135.92 42.2639 135.495 43.3552 134.666 43.6933C134.611 43.7156 134.556 43.7343 134.499 43.7497C133.56 44.0011 132.544 43.2472 132.228 42.0673C131.912 40.8873 132.416 39.7259 133.353 39.4748C133.411 39.4594 133.469 39.4476 133.526 39.4401C134.413 39.3184 135.327 40.0495 135.624 41.1585L135.624 41.1561Z" fill="#493A35"/>
<path id="Vector_114" d="M135.624 41.1561C135.921 42.2639 135.495 43.3552 134.666 43.6933C133.779 43.8149 132.865 43.0839 132.568 41.9749C132.271 40.8659 132.697 39.7758 133.526 39.4377C134.413 39.316 135.327 40.0471 135.624 41.1561Z" fill="#281F1D"/>
</g>
<path id="Vector_115" d="M139.63 39.1686L133.679 40.7631L134.126 42.4291L140.076 40.8346C140.666 40.6766 141.06 40.2385 140.957 39.8548L140.882 39.5769C140.78 39.1932 140.22 39.0106 139.63 39.1686Z" fill="#493A35"/>
</g>
<g id="Group_59">
<path id="Vector_116" d="M124.401 51.4267L124.707 52.5694C124.19 52.7595 123.804 52.9815 123.232 53.1413C122.182 53.4341 121.569 52.945 121.318 51.9319C121.293 51.8353 121.273 51.7335 121.255 51.6275C121.119 50.7926 120.96 50.0616 121.132 49.2084C121.251 48.6237 121.549 48.8182 121.891 49.2848C122.425 50.0147 123.062 51.4064 123.281 51.5361C123.569 51.7075 124.231 51.7263 124.399 51.4258L124.401 51.4267Z" fill="#EAEBF9"/>
<path id="Vector_117" d="M124.401 51.4267L124.707 52.5694C124.19 52.7594 123.804 52.9815 123.232 53.1413C122.183 53.4341 121.569 52.945 121.318 51.9318C121.598 51.9328 121.864 51.757 122.084 51.287C122.361 50.6891 122.173 49.9468 121.891 49.2848C122.425 50.0147 123.062 51.4064 123.281 51.5361C123.569 51.7075 124.231 51.7263 124.399 51.4258L124.401 51.4267Z" fill="#838496"/>
</g>
<g id="Group_60">
<g id="Group_61">
<path id="Vector_118" d="M98.1985 30.6886C97.7985 29.5362 97.4725 28.3627 97.2196 27.1697C97.1024 26.6171 97.7391 26.6063 97.6834 26.0437C97.6588 25.7937 97.6836 24.7648 97.6539 24.5149C96.5726 24.9851 94.6459 25.6457 94.2591 27.5143C94.235 27.6303 94.1945 27.743 94.174 27.8581C94.0039 28.7765 94.2343 31.4814 93.9263 32.2974C93.7518 32.758 93.5316 33.1922 93.3399 33.6368C93.1934 33.9764 93.0641 34.3231 92.9836 34.694C92.6146 36.4082 92.7489 37.3842 92.3845 39.0728C91.9855 40.9149 91.8279 41.8364 92.4775 43.7766C92.8741 44.9596 93.7185 47.09 93.8474 48.3717C93.9622 49.5141 93.2852 50.7024 93.4832 51.8392C93.5133 52.0091 93.5632 52.1711 93.6278 52.3213C93.7102 52.5713 93.8285 52.7923 93.9934 53.0291C94.0169 53.0641 94.0463 53.1065 94.0808 53.154C94.3365 53.5186 94.8312 54.157 95.1215 53.6345C95.4369 53.9251 96.1243 53.9214 96.2523 53.4449C96.6153 53.7357 97.0022 53.4206 97.1344 53.0848C97.4029 53.3248 97.5921 52.9905 97.5205 52.7235C97.4589 52.4937 97.0684 51.549 96.9447 51.3462C96.9101 50.9249 96.9296 50.7482 97.2275 50.6619C97.8059 50.6011 98.9406 50.0907 98.1219 49.5804C97.6532 49.2883 97.4337 49.7107 96.785 49.2451C95.3003 48.1809 95.9314 45.494 96.3272 44.2483C96.6046 43.376 96.9592 42.6815 96.9936 41.7363C97.0266 40.8289 96.7953 39.9175 96.9937 39.0238C97.3389 37.4745 98.2317 36.1523 98.7612 34.6388C98.9225 34.1766 99.041 33.7129 99.1293 33.2471C98.7837 32.4076 98.4996 31.5439 98.2018 30.6864L98.1985 30.6886Z" fill="#FFA471"/>
<path id="Vector_119" d="M98.8574 32.0695C98.8104 32.4791 98.6819 33.2123 98.5487 33.6064C98.2552 34.4715 97.9628 35.2976 97.6199 36.1462C97.3489 36.817 97.0974 37.4555 96.6682 38.0539C96.1002 38.8482 95.426 38.7813 94.5264 38.8032C94.9069 39.0777 95.3919 39.1862 95.7915 39.4362C96.2344 39.7134 96.2929 39.9891 96.3376 40.5585C96.4179 41.558 96.3789 42.467 96.2057 43.4649C95.9044 45.1971 94.8693 46.966 95.6562 48.7238C95.8935 49.2545 96.2473 49.4292 96.7759 49.6382C97.4121 49.8893 97.7266 49.9894 97.1176 50.4774C96.5223 50.9541 96.6752 51.1078 96.7676 51.8217C96.8399 52.3838 96.39 53.4081 95.8484 52.5373C95.5368 52.9418 95.0692 52.9988 94.6696 52.7539C94.5899 53.0937 94.3484 53.1558 94.0759 53.1553C94.3313 53.5188 94.8263 54.1584 95.1166 53.6358C95.432 53.9265 96.1195 53.9228 96.2474 53.4463C96.6104 53.7371 96.9973 53.422 97.1295 53.0862C97.3981 53.3262 98.1347 52.2792 97.8604 52.238C97.4563 52.1774 97.062 51.5495 96.9395 51.3464C96.9061 50.9247 96.9256 50.7481 97.2223 50.6621C97.8007 50.6012 98.9354 50.0909 98.1167 49.5806C97.648 49.2885 97.4285 49.7108 96.7798 49.2452C95.2951 48.1811 95.9262 45.4942 96.322 44.2485C96.5994 43.3762 96.954 42.6817 96.9884 41.7365C97.0214 40.8291 96.79 39.9177 96.9885 39.024C97.3337 37.4747 98.2265 36.1525 98.756 34.639C98.9173 34.1768 99.0358 33.7131 99.1229 33.2476C99.0056 32.9631 98.96 32.3566 98.8543 32.0677L98.8574 32.0695Z" fill="#E07F4F"/>
</g>
<path id="Vector_120" d="M94.259 27.5143C94.3438 28.425 94.2904 29.4913 94.3134 30.2767C94.3518 31.5608 94.5134 32.9407 94.684 34.2242C94.6164 33.7228 94.4105 33.2275 94.177 32.8066C93.8499 33.0528 93.5735 33.3344 93.3378 33.6387C93.5295 33.1941 93.7496 32.7599 93.9242 32.2993C94.2321 31.4833 94.0027 28.7768 94.1718 27.86C94.1936 27.7446 94.2219 27.63 94.2569 27.5162L94.259 27.5143Z" fill="#E07F4F"/>
</g>
<g id="Group_62">
<g id="Group_63">
<path id="Vector_121" d="M120.954 28.8093C121.056 29.3866 121.073 29.9441 120.943 30.4031C120.728 31.1685 120.555 31.6197 120.533 32.4998C120.511 33.3088 120.515 33.9795 120.243 34.7473C119.793 36.0126 118.951 37.1986 118.269 38.3688C117.547 39.6052 116.982 40.8255 116.668 42.2091C116.464 43.1081 116.786 43.3506 116.996 44.2019C117.001 44.2175 117.004 44.2335 117.007 44.2506C117.09 44.6138 117.145 45.1239 116.991 45.5054C116.897 45.7433 116.722 45.9321 116.422 46.0033C116.459 46.0423 116.5 46.0818 116.545 46.1225C116.489 46.153 116.426 46.1763 116.359 46.1931C116.38 47.0912 117.56 46.7221 116.986 47.34C116.564 47.7264 116.122 48.0499 115.628 47.8198C115.283 48.464 114.708 48.3409 114.212 47.971C114.062 48.2111 113.862 48.3743 113.595 48.2602C113.228 48.1033 112.619 47.1372 112.469 46.8086C112.425 46.7133 112.389 46.6251 112.36 46.5425C112.167 45.9845 112.321 45.7021 112.645 45.0262C113.343 43.573 114.203 42.5781 114.18 40.9318C114.156 39.2893 114.85 37.8217 114.566 36.2012C114.473 35.6718 114.397 35.1829 114.336 34.7315C113.853 31.2212 114.21 29.9913 114.21 29.9913C112.339 28.9055 111.715 27.786 110.685 26.653C110.045 25.9505 109.246 25.2427 107.894 24.5349C106.202 23.6489 103.886 18.9219 104.475 17.4207C105.586 14.5872 108.787 13.7667 111.32 16.0532C111.342 16.0731 111.364 16.0942 111.387 16.1141C113.734 18.2595 114.491 20.3719 117.441 23.2195C117.464 23.243 117.488 23.265 117.512 23.2882C117.856 23.6176 118.2 23.9174 118.529 24.2251C119.127 24.783 119.672 25.3665 120.07 26.1934C120.405 26.8886 120.787 27.8743 120.95 28.8079L120.954 28.8093Z" fill="#FFA471"/>
<path id="Vector_122" d="M120.943 30.4032C120.728 31.1686 120.555 31.6198 120.533 32.4999C120.512 33.3086 120.514 33.9796 120.242 34.7474C119.793 36.0127 118.951 37.1987 118.268 38.3693C117.547 39.6053 116.982 40.8256 116.666 42.2096C116.462 43.1088 116.785 43.351 116.994 44.2026C116.998 44.2183 117.002 44.2339 117.005 44.2511C117.079 44.5845 117.111 45.0904 116.991 45.5055C116.915 45.7721 116.775 46.0003 116.545 46.1226C116.489 46.1531 116.426 46.1764 116.358 46.1932C116.381 47.091 117.561 46.7219 116.986 47.3402C116.564 47.7265 116.121 48.05 115.629 47.8196C115.284 48.4638 114.709 48.3407 114.213 47.9708C114.062 48.2112 113.863 48.3741 113.596 48.26C113.228 48.1034 112.62 47.137 112.47 46.8084C112.426 46.7119 112.39 46.6237 112.361 46.5423C112.734 46.6771 113.101 46.8766 113.448 46.2369C113.811 46.5974 114.411 46.5912 114.581 46.0494C115.123 46.5925 115.791 45.7807 116.061 45.3962C116.532 44.7273 116.643 44.3224 116.43 43.4216C116.276 42.7642 115.799 42.1675 115.851 41.5011C115.901 40.8585 116.376 40.2183 116.684 39.6547C117.37 38.4011 118.18 37.0869 118.792 35.7689C119.472 34.304 119.351 32.9687 119.605 31.4643C119.002 31.1593 118.38 30.9689 118.046 30.3183C119.018 30.5955 120.011 30.9212 120.599 29.9141C120.765 29.6297 120.881 29.2376 120.953 28.8098C121.055 29.3871 121.072 29.9446 120.943 30.4032Z" fill="#E07F4F"/>
</g>
<path id="Vector_123" d="M118.532 24.2269C118.177 24.0565 117.819 23.8895 117.491 23.6731C116.131 22.7739 115.306 21.4622 114.227 20.3385C114.536 21.296 114.182 22.31 113.962 23.2186C113.991 21.3814 112.677 18.0774 111.391 16.1168C113.738 18.2622 114.496 20.3747 117.446 23.2223C117.469 23.2458 117.493 23.2678 117.517 23.2909C117.861 23.6204 118.204 23.9202 118.533 24.2278L118.532 24.2269Z" fill="#E07F4F"/>
<path id="Vector_124" d="M115.97 29.5584C114.211 30.419 114.3 32.7994 114.338 34.7322C113.856 31.2219 114.212 29.992 114.212 29.992C110.796 28.4812 108.708 22.5972 108.708 22.5972C110.686 26.654 113.195 28.564 114.261 29.7236C114.807 29.5503 115.63 29.5155 115.97 29.5572L115.97 29.5584Z" fill="#E07F4F"/>
</g>
<path id="Vector_125" d="M132.074 91.7622L131.015 87.3751L144.046 84.3502L145.235 88.3517L132.074 91.7622Z" fill="#838496"/>
<g id="Group_64">
<path id="Vector_126" d="M100.079 21.2491C100.251 22.0539 100.723 23.8302 99.7588 24.3904C99.6676 24.4432 97.5335 24.6463 97.4296 24.6612C96.7972 23.5041 98.3617 22.1722 98.2389 21.7667L97.8302 20.5432L97.8696 20.1343C97.7107 18.6066 97.2153 17.0982 96.8876 15.5539C96.8712 15.4784 96.8563 15.4037 96.8411 15.3279C96.9261 15.4198 97.0115 15.513 97.0944 15.6068C98.4843 17.1798 99.6277 19.1321 100.079 21.2491Z" fill="#E07F4F"/>
<g id="Group_65">
<path id="Vector_127" d="M96.5929 14.6027C97.0141 15.1345 97.7444 15.8038 98.5095 16.3105C98.4712 16.4793 98.1896 16.8422 97.4348 16.8485C97.3734 16.8495 97.3173 16.8555 97.2639 16.8672C97.2791 16.996 97.8673 17.7099 97.913 17.8136C98.8708 20.0077 99.7704 23.5853 97.5156 25.3511C97.4859 25.3745 97.4571 25.3964 97.4264 25.4162C97.4035 25.4314 97.3818 25.4462 97.3598 25.4598C97.3068 25.4921 97.2522 25.5183 97.1978 25.5406C96.9237 25.6489 96.632 25.6291 96.3307 25.43C96.2805 25.3958 95.5111 25.0553 95.4084 25.0171C94.7418 24.7677 93.3135 24.3073 91.6867 23.3741C91.3908 23.2045 91.1124 22.8988 90.8363 22.5873C90.8311 22.5823 90.8271 22.5769 90.8219 22.5719C90.816 22.5644 90.8105 22.5581 90.8034 22.551C90.7835 22.5293 90.7644 22.506 90.7445 22.4843C90.7131 22.4489 90.6815 22.4122 90.649 22.3771C90.6155 22.3384 90.5808 22.3 90.5464 22.2628C90.5298 22.244 90.512 22.2256 90.4954 22.2068C90.4611 22.1696 90.4273 22.1348 90.3921 22.0991C90.3721 22.0774 90.3513 22.0572 90.3305 22.037C90.3097 22.0168 90.2888 21.9966 90.2683 21.9776C90.2546 21.9645 90.2411 21.9527 90.2273 21.9396C90.1579 21.877 90.0877 21.821 90.0179 21.7714C89.8649 21.6654 89.7057 21.565 89.5435 21.4679C89.4103 21.3876 89.2765 21.31 89.1451 21.2317C88.7238 20.9824 88.3193 20.7336 88.0276 20.4263C87.9684 20.3635 87.9067 20.2911 87.8441 20.2112C87.7708 20.1148 87.6961 20.0085 87.6224 19.8916C87.0949 19.0544 86.6343 17.7571 87.0411 16.9984L87.4974 15.4039C88.0462 14.063 88.9662 13.1874 90.0389 12.7285C92.1975 11.802 94.9762 12.5619 96.5959 14.6045L96.5929 14.6027Z" fill="#FFA471"/>
<path id="Vector_128" d="M92.7001 16.966C92.1807 17.0936 91.9305 19.3187 91.4162 19.0672L91.1524 18.8736C91.1374 18.487 92.2395 16.8432 92.6989 16.9663L92.7001 16.966Z" fill="#1E0D07"/>
<g id="Group_66">
<path id="Vector_129" d="M94.6944 12.1374C97.0914 14.4061 98.5127 16.2736 98.5127 16.2736C98.5132 16.2851 98.5113 16.2972 98.5085 16.3109C98.4703 16.4797 98.1887 16.8426 97.4339 16.8489C97.3725 16.8499 97.3163 16.8559 97.2629 16.8676C96.9598 16.9347 96.7555 17.1596 96.3344 17.3137C96.207 17.3607 96.0602 17.3975 95.8845 17.4175C95.0632 17.5112 93.6179 17.2268 90.6594 15.7144C90.3377 15.5492 89.3157 18.9198 87.8413 20.2095C87.5636 20.4528 87.2698 20.6218 86.9617 20.6798C86.9116 20.6894 86.8621 20.6962 86.8116 20.6994C86.4746 20.7214 86.1873 20.5122 85.9628 20.192C85.6936 19.8104 85.5112 19.2688 85.4353 18.7696C85.0406 16.199 88.4914 9.90481 92.5126 10.8681C93.229 11.0397 93.9636 11.4424 94.698 12.1364L94.6944 12.1374Z" fill="#2D140A"/>
<path id="Vector_130" d="M94.6942 12.1374C97.0911 14.4062 98.5124 16.2737 98.5124 16.2737C98.5129 16.2852 98.511 16.2973 98.5083 16.3109C98.47 16.4797 98.1884 16.8427 97.4336 16.849C97.3722 16.8499 97.316 16.856 97.2627 16.8677C96.9595 16.9347 96.7552 17.1596 96.3342 17.3137C96.2068 17.3608 96.0599 17.3975 95.8842 17.4175C95.0629 17.5113 93.6176 17.2268 90.6592 15.7145C90.3375 15.5493 89.3154 18.9198 87.8411 20.2096C87.5633 20.4529 87.2696 20.6218 86.9615 20.6799C86.9745 20.6661 86.9875 20.6523 86.9993 20.6388C87.2175 20.4037 87.4265 20.153 87.6193 19.89C87.8897 19.5236 88.1312 19.1353 88.3257 18.7299C88.6531 18.0491 88.8263 17.3581 89.007 16.6329C89.1037 16.246 89.3686 15.6864 89.2604 15.2874C89.4864 15.4022 89.8878 15.3281 90.1444 15.3561C90.496 15.3933 90.787 15.4056 91.0809 15.1747C91.6503 14.7257 90.9024 14.0197 90.4874 13.7842C90.7293 13.5556 90.9862 13.3256 91.2974 13.1739C90.7874 12.7085 89.868 13.1405 89.4455 13.3994C89.614 13.1751 89.8143 12.9448 90.0347 12.7271C90.3769 12.3892 90.7676 12.0834 91.1623 11.8835C91.6951 11.6144 92.5426 11.3693 93.1393 11.4776C92.9891 11.2432 92.7618 11.0372 92.5087 10.8691C93.2251 11.0407 93.9598 11.4434 94.6942 12.1374Z" fill="#1E0D07"/>
</g>
<path id="Vector_131" d="M88.9058 21.9303C88.8448 21.4967 90.5231 21.3564 90.165 20.9161L89.9292 20.6879C89.6196 20.6638 88.6647 21.5385 88.9055 21.9291L88.9058 21.9303Z" fill="#1E0D07"/>
<g id="Group_67">
<path id="Vector_132" d="M96.5652 15.242C96.9478 15.601 97.1938 16.2841 97.2628 16.8676C97.2781 16.9964 97.19 17.9572 97.1387 18.0006C97.0898 18.0433 97.0233 18.0586 96.9482 18.0516C96.6474 18.0265 96.1805 17.6695 95.8844 17.4175C95.7796 17.3283 95.6963 17.2526 95.6486 17.2086C95.2382 16.8274 94.4649 16.1606 94.642 15.5033C94.867 14.6656 96.0385 14.7475 96.5649 15.2408L96.5652 15.242Z" fill="#FFA471"/>
<path id="Vector_133" d="M95.8209 16.7062L95.1413 16.1689C94.4645 15.6799 95.5867 15.0079 96.1049 15.2068C96.6244 15.4054 96.7822 16.3158 96.7815 16.8021C96.7082 16.4659 96.537 15.688 96.0552 15.6636C95.2313 15.6227 95.7077 16.471 95.8224 16.7071L95.8209 16.7062Z" fill="#E07F4F"/>
</g>
<path id="Vector_134" d="M93.2596 21.5178L93.2876 21.531C93.5514 22.2235 93.0076 22.8204 92.3482 22.6413C92.9311 22.5109 93.081 22.0014 93.2596 21.5178Z" fill="#E07F4F"/>
<g id="Group_68">
<g id="Group_69">
<path id="Vector_135" d="M92.9348 23.7837C93.6369 24.0314 94.9363 24.476 95.8077 24.1858C96.106 24.0866 96.3532 23.9017 96.5112 23.5951C96.8894 22.8543 96.8304 22.0206 96.4972 21.3092C96.2728 20.8266 95.9225 20.4009 95.4993 20.0966L95.4609 20.0682C95.4055 20.2068 95.3496 20.343 95.2929 20.4768C94.7414 21.7977 94.1777 22.9054 93.2991 23.552C93.1832 23.6372 93.0615 23.715 92.9336 23.7841L92.9348 23.7837Z" fill="#E07F4F"/>
<path id="Vector_136" d="M92.9281 23.7817C92.9281 23.7817 92.9325 23.7832 92.934 23.7841C92.9328 23.7844 92.9307 23.7863 92.9282 23.787C92.9034 23.7883 92.9027 23.7858 92.9269 23.782L92.9281 23.7817Z" fill="#2D140A"/>
</g>
<path id="Vector_137" d="M93.3 23.5518C93.7581 23.6985 94.5755 23.95 94.6987 23.801C96.0997 22.1132 95.6539 20.9525 95.2939 20.4765C94.7424 21.7975 94.1786 22.9051 93.3 23.5518Z" fill="white"/>
<path id="Vector_138" d="M95.0486 23.8851C95.3178 23.9934 95.5626 24.1019 95.8073 24.1858C96.1056 24.0866 96.3528 23.9017 96.5108 23.5951C96.889 22.8543 96.83 22.0206 96.4968 21.3092C96.2522 21.2497 95.8817 21.3142 95.6781 21.3069L95.5262 21.3295C95.7458 21.7657 95.3692 23.3466 95.0486 23.8851Z" fill="white"/>
</g>
<g id="Group_70">
<path id="Vector_139" d="M92.7351 19.7748C92.7977 19.7207 92.8883 19.6371 92.9893 19.5301C93.1332 19.3768 93.2952 19.1761 93.4212 18.9464C93.5212 18.7636 93.5952 18.5607 93.618 18.3484C93.618 18.3484 93.6156 18.349 93.6098 18.3467C93.5174 18.3327 92.657 18.2178 92.418 18.6248C92.3534 18.7336 92.335 18.8713 92.3557 19.0205C92.3571 19.0304 92.3585 19.0404 92.3599 19.0503C92.3618 19.0575 92.3638 19.0647 92.3645 19.0723C92.3674 19.0831 92.3691 19.0942 92.372 19.1051C92.3749 19.1159 92.3778 19.1267 92.3807 19.1375C92.3833 19.1472 92.3855 19.1556 92.3878 19.164C92.4379 19.3414 92.5351 19.5268 92.6705 19.6967C92.6918 19.7233 92.7127 19.7486 92.7363 19.7745L92.7351 19.7748Z" fill="white"/>
<path id="Vector_140" d="M92.6692 19.6973C92.5091 19.3586 92.4639 18.9981 92.5927 18.7792C92.7488 18.5131 93.233 18.3936 93.6088 18.3484C93.5164 18.3345 92.656 18.2195 92.417 18.6265C92.3524 18.7353 92.334 18.873 92.3547 19.0222C92.3561 19.0321 92.3575 19.0421 92.3589 19.052C92.3608 19.0592 92.3627 19.0664 92.3635 19.074C92.3664 19.0848 92.3681 19.096 92.371 19.1068C92.3739 19.1176 92.3768 19.1284 92.3797 19.1393C92.3823 19.1489 92.3845 19.1573 92.3868 19.1657C92.4369 19.3431 92.5341 19.5285 92.6695 19.6985L92.6692 19.6973Z" fill="#2D140A"/>
<path id="Vector_141" d="M92.7311 19.3866C92.8159 19.449 92.9046 19.4974 92.9904 19.5299C93.1342 19.3766 93.2962 19.1759 93.4222 18.9462C93.3652 18.8725 93.2923 18.8018 93.206 18.7385C92.902 18.5145 92.5491 18.4775 92.4187 18.6569C92.287 18.8365 92.427 19.1626 92.7314 19.3878L92.7311 19.3866Z" fill="#2D140A"/>
<path id="Vector_142" d="M92.911 18.9314C92.9751 18.9788 93.0492 18.9861 93.0778 18.9487C93.1048 18.9105 93.0762 18.8419 93.012 18.7946C92.9478 18.7472 92.8738 18.7399 92.8452 18.7772C92.8181 18.8155 92.8468 18.884 92.911 18.9314Z" fill="white"/>
</g>
<g id="Group_71">
<path id="Vector_143" d="M90.8321 22.5859C90.8321 22.5859 90.8413 22.577 90.8463 22.5718C90.9834 22.441 91.1383 22.2667 91.2569 22.0622C91.3518 21.8988 91.422 21.715 91.4426 21.5186C91.4426 21.5186 91.4399 21.5181 91.4344 21.517C91.3453 21.4957 90.5155 21.3133 90.2886 21.6744C90.2427 21.7473 90.2223 21.8392 90.2238 21.9406C90.2373 21.9525 90.251 21.9655 90.2648 21.9786C90.3061 22.0178 90.3478 22.0582 90.3886 22.1002C90.5262 22.2399 90.6617 22.3957 90.7996 22.5508C90.8103 22.5621 90.8214 22.5746 90.8312 22.5875L90.8321 22.5859Z" fill="white"/>
<path id="Vector_144" d="M90.3895 22.0986C90.3912 21.995 90.4143 21.9038 90.4582 21.8327C90.5068 21.7552 90.5885 21.6959 90.6906 21.6505C90.8994 21.5572 91.1907 21.5229 91.4344 21.517C91.3453 21.4957 90.5155 21.3133 90.2886 21.6744C90.2427 21.7473 90.2223 21.8392 90.2238 21.9406C90.2373 21.9525 90.251 21.9655 90.2648 21.9786C90.3061 22.0178 90.3478 22.0582 90.3886 22.1002L90.3895 22.0986Z" fill="#2D140A"/>
<path id="Vector_145" d="M90.8006 22.5495C90.8158 22.5583 90.8319 22.5656 90.8465 22.572C90.9835 22.4412 91.1384 22.2669 91.257 22.0624C91.2012 21.9884 91.1313 21.9143 91.0479 21.8477C90.9304 21.7541 90.8058 21.6869 90.6908 21.6507C90.5167 21.5955 90.3638 21.6094 90.2887 21.703C90.2348 21.7703 90.2302 21.8682 90.2655 21.9761C90.3068 22.0153 90.3485 22.0557 90.3893 22.0976C90.5269 22.2374 90.6624 22.3932 90.8003 22.5483L90.8006 22.5495Z" fill="#2D140A"/>
<path id="Vector_146" d="M90.7662 22.0045C90.8286 22.055 90.9003 22.068 90.9263 22.0353C90.9523 22.0025 90.9239 21.9351 90.8615 21.8847C90.7991 21.8342 90.7274 21.8211 90.7014 21.8539C90.6754 21.8867 90.7038 21.9541 90.7662 22.0045Z" fill="white"/>
</g>
</g>
</g>
</g>
</g>
<g id="Group_72">
<g id="Group_73">
<path id="Vector_147" d="M59.4205 87.4855L44.9759 91.356L39.5436 59.3108L46.5436 57.2951L46.5646 57.3433L59.4205 87.4855Z" fill="#505154"/>
<path id="Vector_148" d="M59.4204 87.4856L49.8377 89.9132L42.2788 58.578L46.5645 57.3434L59.4204 87.4856Z" fill="#575759"/>
</g>
<g id="Group_74">
<g id="Group_75">
<g id="Group_76">
<path id="Vector_149" d="M56.1439 82.5337C56.6586 84.4545 58.2422 85.7224 59.7794 85.5114C59.8799 85.4977 59.9808 85.4778 60.0808 85.451C61.7065 85.0154 62.5803 83.0038 62.0318 80.9571C61.4834 78.9104 59.7209 77.6052 58.0952 78.0408C57.9952 78.0676 57.8989 78.1005 57.804 78.1391C56.367 78.7241 55.6298 80.6149 56.1444 82.5356L56.1439 82.5337Z" fill="#575759"/>
<path id="Vector_150" d="M56.1438 82.534C56.6585 84.4547 58.2421 85.7226 59.7793 85.5117C61.2164 84.9266 61.9536 83.0359 61.4389 81.1151C60.9243 79.1944 59.3404 77.9256 57.8034 78.1375C56.3664 78.7225 55.6291 80.6132 56.1438 82.534Z" fill="#838487"/>
</g>
<g id="Group_77">
<path id="Vector_151" d="M54.439 83.0778C55.0585 85.3897 56.9654 86.9171 58.8155 86.662C58.9365 86.6458 59.0575 86.6215 59.1782 86.5891C61.1351 86.0648 62.1869 83.6421 61.5269 81.1787C60.8668 78.7152 58.7445 77.143 56.7876 77.6674C56.6669 77.6997 56.55 77.7391 56.4371 77.7856C54.7073 78.4897 53.8195 80.7659 54.439 83.0778Z" fill="#575759"/>
<path id="Vector_152" d="M54.4393 83.0781C55.0587 85.39 56.9657 86.9174 58.8157 86.6623C60.5455 85.9582 61.4333 83.682 60.8138 81.3701C60.1943 79.0582 58.2874 77.5308 56.4373 77.7859C54.7076 78.49 53.8198 80.7662 54.4393 83.0781Z" fill="#838487"/>
</g>
</g>
<g id="Group_78">
<path id="Vector_153" d="M56.5771 82.5049C56.8202 83.4122 57.5681 84.0107 58.294 83.9117C58.3417 83.9049 58.3887 83.8954 58.4359 83.8828C59.2039 83.677 59.6168 82.7268 59.3577 81.7598C59.0986 80.7928 58.266 80.1764 57.4979 80.3822C57.4507 80.3949 57.4053 80.4101 57.3606 80.4282C56.6822 80.7044 56.334 81.5976 56.5771 82.5049Z" fill="#281F1D"/>
<path id="Vector_154" d="M56.5771 82.5049C56.8203 83.4123 57.5682 84.0107 58.294 83.9117C58.9724 83.6355 59.3206 82.7423 59.0775 81.835C58.8344 80.9276 58.0862 80.3282 57.3606 80.4282C56.6822 80.7044 56.334 81.5976 56.5771 82.5049Z" fill="#281F1D"/>
</g>
<g id="Group_79">
<path id="Vector_155" d="M46.7671 83.4241L57.0432 80.6707L57.8611 83.7232L47.5851 86.4767C47.2756 86.5596 46.8948 86.1388 46.7334 85.5365L46.4997 84.6642C46.3383 84.0618 46.4586 83.5068 46.7671 83.4241Z" fill="#281F1D"/>
<g id="Group_80">
<path id="Vector_156" d="M45.2009 85.5532C45.8204 87.8651 47.7273 89.3925 49.5774 89.1373C49.6984 89.1211 49.8194 89.0968 49.9401 89.0645C51.897 88.5401 52.9488 86.1174 52.2888 83.654C51.6287 81.1906 49.5064 79.6183 47.5495 80.1427C47.4297 80.1748 47.3129 80.2142 47.199 80.261C45.4692 80.9651 44.5814 83.2413 45.2009 85.5532Z" fill="#575759"/>
<path id="Vector_157" d="M45.2009 85.5535C45.8204 87.8654 47.7274 89.3927 49.5774 89.1376C51.3071 88.4335 52.1949 86.1573 51.5755 83.8454C50.956 81.5335 49.049 80.0061 47.199 80.2613C45.4692 80.9653 44.5815 83.2416 45.2009 85.5535Z" fill="#838487"/>
</g>
<g id="Group_81">
<path id="Vector_158" d="M44.8632 85.6437C45.3779 87.5644 46.9615 88.8323 48.4985 88.6204C48.599 88.6067 48.6998 88.5868 48.7998 88.56C50.4256 88.1244 51.2991 86.1119 50.7509 84.0661C50.2027 82.0203 48.44 80.7142 46.8143 81.1498C46.7143 81.1766 46.6179 81.2095 46.5231 81.2481C45.0861 81.8331 44.3488 83.7239 44.8635 85.6446L44.8632 85.6437Z" fill="#575759"/>
<path id="Vector_159" d="M44.8633 85.6439C45.378 87.5646 46.9616 88.8325 48.4986 88.6206C49.9356 88.0356 50.6729 86.1449 50.1585 84.2251C49.644 82.3053 48.0602 81.0365 46.5229 81.2474C45.0859 81.8324 44.3487 83.7231 44.8633 85.6439Z" fill="#838487"/>
</g>
<g id="Group_82">
<path id="Vector_160" d="M44.6866 85.6911C45.08 87.1591 46.2902 88.128 47.4655 87.9664C47.5426 87.9559 47.6193 87.9404 47.6958 87.9199C48.9384 87.587 49.6063 86.0488 49.1873 84.4851C48.7683 82.9214 47.4208 81.9233 46.1782 82.2562C46.1017 82.2767 46.0275 82.3017 45.9555 82.3311C44.8578 82.7785 44.2933 84.223 44.6866 85.6911Z" fill="#575759"/>
<path id="Vector_161" d="M44.6866 85.6913C45.0799 87.1593 46.2902 88.1283 47.4654 87.9667C48.5641 87.519 49.1277 86.0747 48.7343 84.6067C48.341 83.1387 47.1305 82.1688 45.9555 82.3314C44.8578 82.7788 44.2932 84.2233 44.6866 85.6913Z" fill="#838487"/>
</g>
<g id="Group_83">
<path id="Vector_162" d="M45.0903 85.5829C45.3096 86.4012 45.9844 86.9421 46.6398 86.8517C46.6828 86.8463 46.7258 86.8368 46.7683 86.8254C47.4618 86.6396 47.8336 85.7817 47.5999 84.9094C47.3661 84.0371 46.6152 83.4801 45.9217 83.6659C45.8792 83.6773 45.8375 83.6915 45.7972 83.7073C45.1845 83.9568 44.8705 84.7627 45.09 85.5819L45.0903 85.5829Z" fill="#493A35"/>
<path id="Vector_163" d="M45.0902 85.583C45.3095 86.4013 45.9843 86.9422 46.6397 86.8519C47.2524 86.6024 47.5664 85.7966 47.3472 84.9783C47.1279 84.16 46.4518 83.6183 45.7974 83.7084C45.1847 83.9579 44.8707 84.7638 45.0902 85.583Z" fill="#281F1D"/>
</g>
</g>
</g>
<g id="Group_84">
<g id="Group_85">
<g id="Group_86">
<path id="Vector_164" d="M53.3767 75.3876C53.7449 76.7619 54.878 77.6693 55.9781 77.5176C56.0502 77.5075 56.1222 77.4932 56.193 77.4743C57.3564 77.1625 57.9819 75.723 57.5896 74.2588C57.1973 72.7945 55.9357 71.8606 54.7724 72.1723C54.7006 72.1916 54.6311 72.2152 54.5646 72.2422C53.537 72.6607 53.0085 74.0133 53.3767 75.3876Z" fill="#575759"/>
<path id="Vector_165" d="M53.3766 75.3878C53.7449 76.7621 54.8779 77.6695 55.978 77.5179C57.0066 77.0991 57.5341 75.7468 57.1659 74.3725C56.7976 72.9982 55.6646 72.0908 54.5645 72.2425C53.5369 72.6609 53.0084 74.0136 53.3766 75.3878Z" fill="#838487"/>
</g>
<g id="Group_87">
<path id="Vector_166" d="M52.1574 75.7773C52.6007 77.4319 53.9653 78.524 55.2888 78.3419C55.3756 78.3299 55.462 78.3128 55.5479 78.2898C56.9481 77.9146 57.7012 76.181 57.2289 74.4184C56.7566 72.6559 55.2386 71.5308 53.8374 71.9062C53.7516 71.9293 53.6682 71.9577 53.587 71.9906C52.3498 72.4947 51.714 74.1227 52.1574 75.7773Z" fill="#575759"/>
<path id="Vector_167" d="M52.1574 75.7775C52.6008 77.4321 53.9654 78.5242 55.2889 78.3421C56.5271 77.8378 57.1618 76.21 56.7185 74.5554C56.2751 72.9008 54.9106 71.8087 53.587 71.9908C52.3498 72.4949 51.7141 74.1229 52.1574 75.7775Z" fill="#838487"/>
</g>
</g>
<g id="Group_88">
<path id="Vector_168" d="M53.6871 75.3674C53.8609 76.0162 54.3966 76.4452 54.9156 76.3741C54.9496 76.3691 54.9834 76.3631 55.0173 76.354C55.5665 76.2068 55.8616 75.5268 55.6763 74.8354C55.4911 74.144 54.8955 73.7027 54.3464 73.8498C54.3124 73.8589 54.2799 73.8696 54.2481 73.8832C53.7622 74.0814 53.5135 74.7196 53.6876 75.3693L53.6871 75.3674Z" fill="#281F1D"/>
<path id="Vector_169" d="M53.6872 75.3676C53.861 76.0164 54.3966 76.4454 54.9156 76.3743C55.4015 76.1761 55.6502 75.538 55.4761 74.8883C55.302 74.2386 54.7666 73.8105 54.2477 73.8815C53.7618 74.0798 53.5131 74.7179 53.6872 75.3676Z" fill="#281F1D"/>
</g>
<g id="Group_89">
<path id="Vector_170" d="M46.6679 76.0251L54.0209 74.0549L54.6061 76.2389L47.2531 78.2091C47.0323 78.2683 46.7585 77.9671 46.643 77.5362L46.4758 76.912C46.3603 76.4811 46.4459 76.0836 46.6677 76.0241L46.6679 76.0251Z" fill="#281F1D"/>
<g id="Group_90">
<path id="Vector_171" d="M45.546 77.5489C45.9894 79.2035 47.3539 80.2955 48.6775 80.1135C48.7642 80.1014 48.8507 80.0843 48.9365 80.0613C50.3368 79.6861 51.0898 77.9526 50.6175 76.19C50.1453 74.4274 48.6272 73.3024 47.2261 73.6778C47.1402 73.7008 47.0568 73.7292 46.9756 73.7622C45.7384 74.2662 45.1027 75.8943 45.546 77.5489Z" fill="#575759"/>
<path id="Vector_172" d="M45.5461 77.5491C45.9895 79.2037 47.3541 80.2957 48.6776 80.1137C49.9148 79.6096 50.5505 77.9816 50.1072 76.3269C49.6638 74.6723 48.2993 73.5803 46.9757 73.7623C45.7385 74.2664 45.1028 75.8945 45.5461 77.5491Z" fill="#838487"/>
</g>
<g id="Group_91">
<path id="Vector_173" d="M45.3046 77.6135C45.6729 78.9878 46.8069 79.8949 47.906 79.7436C47.9781 79.7334 48.0502 79.7192 48.1219 79.6999C49.2853 79.3882 49.9099 77.9489 49.5175 76.4847C49.1252 75.0204 47.8644 74.0853 46.701 74.3971C46.6293 74.4163 46.5598 74.44 46.4922 74.4672C45.4646 74.8857 44.9361 76.2383 45.3046 77.6135Z" fill="#575759"/>
<path id="Vector_174" d="M45.3046 77.6139C45.6728 78.9881 46.8068 79.8953 47.906 79.7439C48.9345 79.3252 49.4621 77.9728 49.0938 76.5985C48.7256 75.2243 47.5916 74.3171 46.4922 74.4676C45.4646 74.886 44.9361 76.2387 45.3046 77.6139Z" fill="#838487"/>
</g>
<g id="Group_92">
<path id="Vector_175" d="M45.1791 77.6472C45.4605 78.6975 46.327 79.3911 47.1677 79.2755C47.2223 79.268 47.2781 79.2571 47.3328 79.2424C48.2216 79.0043 48.6994 77.9038 48.3994 76.7843C48.0994 75.6648 47.1354 74.9506 46.2466 75.1888C46.1919 75.2035 46.1391 75.2217 46.0871 75.2427C45.3012 75.5629 44.8977 76.5968 45.1791 77.6472Z" fill="#575759"/>
<path id="Vector_176" d="M45.179 77.6473C45.4604 78.6977 46.3269 79.3913 47.1676 79.2756C47.9535 78.9554 48.3571 77.9215 48.0757 76.8712C47.7942 75.8208 46.9278 75.1272 46.087 75.2428C45.3011 75.5631 44.8976 76.597 45.179 77.6473Z" fill="#838487"/>
</g>
<g id="Group_93">
<path id="Vector_177" d="M45.4679 77.5699C45.625 78.1561 46.1077 78.5425 46.5768 78.4777C46.607 78.4736 46.6377 78.4674 46.6689 78.4591C47.1652 78.3261 47.4316 77.7127 47.2644 77.0885C47.0971 76.4644 46.5594 76.0654 46.0631 76.1983C46.0329 76.2064 46.0032 76.2164 45.974 76.2283C45.5354 76.4067 45.3108 76.9836 45.4679 77.5699Z" fill="#493A35"/>
<path id="Vector_178" d="M45.468 77.5698C45.625 78.1561 46.1078 78.5424 46.5769 78.4776C47.0155 78.2992 47.2401 77.7223 47.0833 77.137C46.9265 76.5517 46.4435 76.1644 45.9741 76.2282C45.5355 76.4067 45.3109 76.9835 45.468 77.5698Z" fill="#281F1D"/>
</g>
</g>
</g>
<g id="Group_94">
<g id="Group_95">
<g id="Group_96">
<path id="Vector_179" d="M51.175 68.758C51.4701 69.8595 52.3789 70.5865 53.2595 70.4652C53.317 70.4569 53.3746 70.4455 53.4322 70.4301C54.3644 70.1803 54.8654 69.0269 54.5509 67.8534C54.2365 66.68 53.2259 65.9316 52.2937 66.1814C52.2362 66.1968 52.1806 66.2158 52.1267 66.2373C51.3033 66.5726 50.8798 67.6565 51.175 68.758Z" fill="#575759"/>
<path id="Vector_180" d="M51.1751 68.7582C51.4703 69.8597 52.379 70.5866 53.2597 70.4653C54.0831 70.13 54.5066 69.0461 54.2114 67.9446C53.9163 66.8431 53.0085 66.1159 52.1269 66.2374C51.3035 66.5728 50.88 67.6567 51.1751 68.7582Z" fill="#838487"/>
</g>
<g id="Group_97">
<path id="Vector_181" d="M50.1978 69.0707C50.5531 70.3966 51.6463 71.2721 52.7074 71.1259C52.7766 71.1164 52.8456 71.102 52.9145 71.0836C54.0363 70.783 54.64 69.3939 54.2616 67.9818C53.8833 66.5697 52.6669 65.6683 51.5441 65.9692C51.4752 65.9876 51.4085 66.0106 51.3438 66.037C50.3518 66.4409 49.8428 67.7457 50.1981 69.0716L50.1978 69.0707Z" fill="#575759"/>
<path id="Vector_182" d="M50.1979 69.071C50.5532 70.397 51.6463 71.2724 52.7074 71.1262C53.6994 70.7223 54.2084 69.4175 53.8531 68.0916C53.4978 66.7656 52.4047 65.8902 51.3436 66.0364C50.3515 66.4403 49.8426 67.7451 50.1979 69.071Z" fill="#838487"/>
</g>
</g>
<g id="Group_98">
<path id="Vector_183" d="M51.4232 68.7423C51.5625 69.2623 51.9914 69.6062 52.4078 69.5485C52.435 69.5442 52.4619 69.539 52.4892 69.5317C52.9299 69.4136 53.1662 68.8691 53.0178 68.3151C52.8693 67.761 52.3921 67.4067 51.9515 67.5248C51.9241 67.5321 51.8982 67.5411 51.8726 67.551C51.4831 67.7091 51.2836 68.2214 51.423 68.7414L51.4232 68.7423Z" fill="#281F1D"/>
<path id="Vector_184" d="M51.4231 68.7425C51.5624 69.2625 51.9913 69.6064 52.4076 69.5486C52.7971 69.3905 52.9966 68.8782 52.8572 68.3582C52.7179 67.8383 52.289 67.4944 51.8727 67.5521C51.4832 67.7103 51.2837 68.2226 51.4231 68.7425Z" fill="#281F1D"/>
</g>
<g id="Group_99">
<path id="Vector_185" d="M45.7993 69.2687L51.6907 67.6901L52.1597 69.4404L46.2683 71.019C46.0909 71.0665 45.8723 70.8246 45.78 70.4798L45.646 69.9798C45.5533 69.6341 45.6219 69.3162 45.7993 69.2687Z" fill="#281F1D"/>
<g id="Group_100">
<path id="Vector_186" d="M44.9007 70.4901C45.2559 71.816 46.3491 72.6915 47.4102 72.5452C47.4795 72.5358 47.5484 72.5214 47.6182 72.5027C48.7401 72.2021 49.3428 70.8133 48.9645 69.4012C48.5861 67.989 47.3697 67.0877 46.2478 67.3883C46.179 67.4067 46.1123 67.4297 46.0466 67.4564C45.0546 67.8603 44.5456 69.1651 44.9009 70.491L44.9007 70.4901Z" fill="#575759"/>
<path id="Vector_187" d="M44.9006 70.4904C45.2558 71.8164 46.349 72.6919 47.4101 72.5456C48.4021 72.1417 48.9111 70.837 48.5558 69.511C48.2005 68.1851 47.1074 67.3096 46.0463 67.4558C45.0542 67.8597 44.5453 69.1645 44.9006 70.4904Z" fill="#838487"/>
</g>
<g id="Group_101">
<path id="Vector_188" d="M44.7072 70.5419C45.0024 71.6434 45.9102 72.3706 46.7918 72.2491C46.8493 72.2408 46.9069 72.2294 46.9644 72.214C47.8966 71.9642 48.3976 70.8108 48.0832 69.6373C47.7688 68.4639 46.7582 67.7155 45.826 67.9652C45.7684 67.9807 45.7128 67.9996 45.6589 68.0212C44.8356 68.3565 44.4121 69.4404 44.7072 70.5419Z" fill="#575759"/>
<path id="Vector_189" d="M44.7071 70.5421C45.0023 71.6435 45.9101 72.3707 46.7917 72.2492C47.616 71.9136 48.0386 70.83 47.7434 69.7285C47.4483 68.627 46.5405 67.8998 45.6588 68.0213C44.8355 68.3566 44.412 69.4406 44.7071 70.5421Z" fill="#838487"/>
</g>
<g id="Group_102">
<path id="Vector_190" d="M44.6054 70.5692C44.831 71.4112 45.5248 71.9663 46.1988 71.874C46.2428 71.8683 46.287 71.8595 46.3304 71.8479C47.0428 71.657 47.4253 70.7749 47.1852 69.8789C46.9452 68.983 46.1726 68.4094 45.4602 68.6003C45.4168 68.6119 45.3741 68.6264 45.3332 68.6434C44.7031 68.8996 44.38 69.7282 44.6056 70.5702L44.6054 70.5692Z" fill="#575759"/>
<path id="Vector_191" d="M44.6053 70.5694C44.8309 71.4114 45.5247 71.9665 46.1988 71.8742C46.8289 71.618 47.152 70.7894 46.9264 69.9474C46.7008 69.1055 46.0069 68.5503 45.3329 68.6426C44.7027 68.8988 44.3797 69.7274 44.6053 70.5694Z" fill="#838487"/>
</g>
<g id="Group_103">
<path id="Vector_192" d="M44.8374 70.5071C44.9633 70.9769 45.3506 71.2863 45.726 71.2344C45.7504 71.2309 45.7754 71.2262 45.8 71.2197C46.1972 71.1132 46.4113 70.6214 46.2773 70.1213C46.1433 69.6212 45.7129 69.3021 45.3147 69.4088C45.2902 69.4154 45.2671 69.4236 45.2434 69.433C44.8923 69.5758 44.7118 70.0383 44.8374 70.5071Z" fill="#493A35"/>
<path id="Vector_193" d="M44.8375 70.5071C44.9634 70.9769 45.3507 71.2862 45.7261 71.2344C46.0772 71.0916 46.2577 70.629 46.132 70.1602C46.0064 69.6914 45.6189 69.3811 45.2434 69.4329C44.8923 69.5757 44.7119 70.0383 44.8375 70.5071Z" fill="#281F1D"/>
</g>
</g>
</g>
<g id="Group_104">
<g id="Group_105">
<g id="Group_106">
<path id="Vector_194" d="M49.4332 63.4196C49.6751 64.3222 50.4194 64.9186 51.1419 64.8184C51.1897 64.8117 51.2366 64.8021 51.2829 64.7897C52.0471 64.5849 52.4572 63.6396 52.1997 62.6783C51.9421 61.717 51.1143 61.1034 50.35 61.3081C50.3028 61.3208 50.2573 61.336 50.2136 61.3538C49.539 61.629 49.1914 62.517 49.4332 63.4196Z" fill="#575759"/>
<path id="Vector_195" d="M49.4332 63.4196C49.6751 64.3222 50.4194 64.9186 51.1419 64.8184C51.8175 64.543 52.1641 63.6552 51.9223 62.7526C51.6804 61.85 50.9361 61.2536 50.2136 61.3538C49.539 61.629 49.1914 62.517 49.4332 63.4196Z" fill="#838487"/>
</g>
<g id="Group_107">
<path id="Vector_196" d="M48.6323 63.6757C48.9234 64.7621 49.8197 65.4802 50.6885 65.36C50.745 65.352 50.8027 65.3406 50.8583 65.3257C51.7783 65.0792 52.2722 63.9409 51.9621 62.7835C51.6519 61.6262 50.6551 60.8873 49.7351 61.1338C49.6785 61.149 49.6238 61.1677 49.5709 61.189C48.7586 61.5203 48.3412 62.5894 48.6323 63.6757Z" fill="#575759"/>
<path id="Vector_197" d="M48.6322 63.6759C48.9233 64.7623 49.8196 65.4804 50.6884 65.3602C51.5007 65.0289 51.9181 63.9598 51.627 62.8735C51.3359 61.7871 50.4396 61.069 49.5708 61.1892C48.7585 61.5205 48.3411 62.5896 48.6322 63.6759Z" fill="#838487"/>
</g>
</g>
<g id="Group_108">
<path id="Vector_198" d="M49.6372 63.4064C49.7514 63.8326 50.1029 64.1141 50.4443 64.0672C50.4667 64.0643 50.4887 64.0594 50.5113 64.0533C50.8718 63.9568 51.0665 63.5097 50.9449 63.056C50.8234 62.6024 50.4321 62.3123 50.0708 62.4091C50.0491 62.415 50.0267 62.422 50.0057 62.4306C49.6867 62.5608 49.523 62.9802 49.6372 63.4064Z" fill="#281F1D"/>
<path id="Vector_199" d="M49.6374 63.4067C49.7516 63.8329 50.103 64.1143 50.4444 64.0675C50.7635 63.9373 50.9272 63.5179 50.813 63.0917C50.6988 62.6655 50.3473 62.3841 50.0059 62.4309C49.6868 62.561 49.5232 62.9805 49.6374 63.4067Z" fill="#281F1D"/>
</g>
<g id="Group_109">
<path id="Vector_200" d="M45.0271 63.8377L49.8561 62.5438L50.2406 63.9787L45.4115 65.2726C45.2662 65.3115 45.0869 65.1139 45.011 64.8307L44.9011 64.4206C44.8252 64.1375 44.8818 63.8767 45.0271 63.8377Z" fill="#281F1D"/>
<g id="Group_110">
<path id="Vector_201" d="M44.2911 64.8389C44.5822 65.9253 45.4784 66.6434 46.3482 66.523C46.4047 66.515 46.4624 66.5036 46.519 66.4884C47.4389 66.2419 47.9328 65.1036 47.6227 63.9462C47.3126 62.7889 46.3157 62.05 45.3957 62.2965C45.3391 62.3117 45.2845 62.3304 45.2306 62.3519C44.4183 62.6833 44 63.7526 44.2911 64.8389Z" fill="#575759"/>
<path id="Vector_202" d="M44.2912 64.8391C44.5823 65.9254 45.4786 66.6435 46.3484 66.5231C47.1616 66.1916 47.579 65.1225 47.2879 64.0361C46.9968 62.9498 46.1005 62.2317 45.2307 62.3521C44.4185 62.6834 44.0001 63.7527 44.2912 64.8391Z" fill="#838487"/>
</g>
<g id="Group_111">
<path id="Vector_203" d="M44.1325 64.8814C44.3744 65.784 45.1187 66.3804 45.8412 66.2802C45.889 66.2734 45.936 66.2639 45.9822 66.2515C46.7465 66.0467 47.1566 65.1014 46.899 64.1401C46.6414 63.1788 45.8136 62.5651 45.0493 62.7699C45.0021 62.7826 44.9567 62.7978 44.9129 62.8156C44.2383 63.0908 43.8907 63.9788 44.1325 64.8814Z" fill="#575759"/>
<path id="Vector_204" d="M44.1327 64.8813C44.3746 65.7839 45.1189 66.3803 45.8414 66.2801C46.516 66.0049 46.8636 65.117 46.6218 64.2144C46.3799 63.3118 45.6356 62.7154 44.9131 62.8156C44.2385 63.0907 43.8909 63.9787 44.1327 64.8813Z" fill="#838487"/>
</g>
<g id="Group_112">
<path id="Vector_205" d="M44.0497 64.9037C44.2345 65.5932 44.8035 66.0488 45.3556 65.9729C45.3917 65.9683 45.4281 65.9606 45.464 65.951C46.048 65.7945 46.362 65.0718 46.1651 64.3369C45.9682 63.6019 45.3349 63.1331 44.7509 63.2896C44.715 63.2992 44.6796 63.3107 44.646 63.3248C44.13 63.5351 43.865 64.2142 44.0497 64.9037Z" fill="#575759"/>
<path id="Vector_206" d="M44.0498 64.9039C44.2345 65.5934 44.8036 66.049 45.3556 65.9731C45.8716 65.7628 46.1367 65.0837 45.9519 64.3942C45.7672 63.7047 45.1981 63.2491 44.6461 63.325C44.13 63.5353 43.865 64.2144 44.0498 64.9039Z" fill="#838487"/>
</g>
<g id="Group_113">
<path id="Vector_207" d="M44.2403 64.8525C44.3433 65.237 44.6602 65.4912 44.9685 65.4492C44.9891 65.4467 45.0092 65.4424 45.029 65.437C45.3545 65.3498 45.5296 64.9466 45.4197 64.5365C45.3098 64.1264 44.9566 63.8648 44.6311 63.952C44.6112 63.9573 44.5917 63.9635 44.5726 63.9717C44.2844 64.0885 44.1373 64.468 44.2403 64.8525Z" fill="#493A35"/>
<path id="Vector_208" d="M44.2403 64.8531C44.3433 65.2376 44.6602 65.4917 44.9685 65.4497C45.2565 65.332 45.4039 64.9534 45.3008 64.5689C45.1978 64.1844 44.88 63.9305 44.5726 63.9722C44.2844 64.0891 44.1373 64.4685 44.2403 64.8531Z" fill="#281F1D"/>
</g>
</g>
</g>
<g id="Group_114">
<g id="Group_115">
<g id="Group_116">
<path id="Vector_209" d="M48.0136 58.5498C48.2354 59.3775 48.918 59.9245 49.5812 59.8331C49.6242 59.8277 49.6681 59.8179 49.7106 59.8066C50.4116 59.6187 50.788 58.7515 50.5515 57.8687C50.315 56.986 49.5554 56.4232 48.8543 56.611C48.8109 56.6226 48.7692 56.6369 48.7292 56.6537C48.1101 56.9058 47.7916 57.7211 48.0134 58.5488L48.0136 58.5498Z" fill="#575759"/>
<path id="Vector_210" d="M48.0138 58.5498C48.2356 59.3775 48.9181 59.9245 49.5813 59.8331C50.2004 59.5809 50.519 58.7657 50.2971 57.9379C50.0753 57.1102 49.3919 56.5634 48.7296 56.6546C48.1105 56.9068 47.792 57.722 48.0138 58.5498Z" fill="#838487"/>
</g>
<g id="Group_117">
<path id="Vector_211" d="M47.2776 58.7845C47.5445 59.7809 48.3672 60.4396 49.1649 60.3294C49.2177 60.3223 49.2694 60.3115 49.3213 60.2976C50.1648 60.0716 50.6182 59.0274 50.3337 57.9657C50.0492 56.9039 49.1342 56.2254 48.2907 56.4514C48.2388 56.4653 48.1886 56.4818 48.1394 56.5021C47.3935 56.8055 47.0103 57.7872 47.2773 58.7836L47.2776 58.7845Z" fill="#575759"/>
<path id="Vector_212" d="M47.2777 58.7846C47.5447 59.781 48.3673 60.4396 49.165 60.3294C49.911 60.026 50.2932 59.0445 50.0262 58.0482C49.7592 57.0518 48.9365 56.3932 48.1398 56.5031C47.3938 56.8065 47.0107 57.7883 47.2777 58.7846Z" fill="#838487"/>
</g>
</g>
<g id="Group_118">
<path id="Vector_213" d="M48.1993 58.5376C48.3041 58.9287 48.6272 59.1873 48.9393 59.1443C48.9598 59.1418 48.9799 59.1374 49.0007 59.1319C49.3319 59.0431 49.5092 58.6332 49.3976 58.2165C49.2859 57.7997 48.9273 57.5334 48.5962 57.6222C48.5754 57.6277 48.5558 57.634 48.5368 57.6421C48.2441 57.7612 48.0945 58.1464 48.1993 58.5376Z" fill="#281F1D"/>
<path id="Vector_214" d="M48.1992 58.538C48.304 58.9291 48.6272 59.1877 48.9392 59.1447C49.232 59.0256 49.3825 58.6402 49.2777 58.249C49.1729 57.8579 48.8498 57.5993 48.5367 57.6426C48.244 57.7616 48.0944 58.1468 48.1992 58.538Z" fill="#281F1D"/>
</g>
<g id="Group_119">
<path id="Vector_215" d="M43.9702 58.9338L48.4001 57.7468L48.7528 59.0633L44.3229 60.2503C44.1899 60.2859 44.0251 60.1048 43.9555 59.8453L43.8548 59.4692C43.7852 59.2097 43.8374 58.9704 43.9704 58.9348L43.9702 58.9338Z" fill="#281F1D"/>
<g id="Group_120">
<path id="Vector_216" d="M43.2949 59.8517C43.5618 60.848 44.3845 61.5067 45.1813 61.3967C45.234 61.3897 45.2857 61.3789 45.3376 61.365C46.1811 61.139 46.6345 60.0948 46.35 59.0331C46.0656 57.9713 45.1506 57.2928 44.307 57.5188C44.2551 57.5327 44.205 57.5492 44.1558 57.5695C43.4098 57.8729 43.0276 58.8544 43.2946 59.8507L43.2949 59.8517Z" fill="#575759"/>
<path id="Vector_217" d="M43.295 59.8518C43.562 60.8481 44.3846 61.5068 45.1814 61.3968C45.9273 61.0934 46.3105 60.1117 46.0435 59.1153C45.7765 58.1189 44.9538 57.4603 44.1561 57.5705C43.4102 57.8739 43.028 58.8554 43.295 59.8518Z" fill="#838487"/>
</g>
<g id="Group_121">
<path id="Vector_218" d="M43.1494 59.8907C43.3712 60.7185 44.0547 61.2652 44.717 61.1741C44.76 61.1686 44.8039 61.1589 44.8464 61.1475C45.5474 60.9597 45.9238 60.0924 45.6873 59.2097C45.4508 58.327 44.6912 57.7641 43.9901 57.9519C43.9467 57.9636 43.905 57.9778 43.8648 57.9937C43.2457 58.2458 42.9271 59.061 43.1489 59.8888L43.1494 59.8907Z" fill="#575759"/>
<path id="Vector_219" d="M43.1495 59.8908C43.3713 60.7185 44.0548 61.2653 44.717 61.1741C45.3361 60.9219 45.6546 60.1067 45.4328 59.2789C45.211 58.4512 44.5275 57.9044 43.8653 57.9956C43.2462 58.2478 42.9277 59.063 43.1495 59.8908Z" fill="#838487"/>
</g>
<g id="Group_122">
<path id="Vector_220" d="M43.0731 59.9111C43.2426 60.5437 43.7643 60.9623 44.2715 60.8924C44.3046 60.8876 44.3371 60.8809 44.3702 60.872C44.9061 60.7284 45.1937 60.0656 45.013 59.3913C44.8323 58.7169 44.2519 58.2867 43.7159 58.4303C43.6829 58.4392 43.6513 58.4497 43.6205 58.463C43.1473 58.6558 42.9036 59.2784 43.0733 59.912L43.0731 59.9111Z" fill="#575759"/>
<path id="Vector_221" d="M43.0732 59.9111C43.2427 60.5438 43.7645 60.9623 44.2716 60.8924C44.7448 60.6996 44.9885 60.077 44.8188 59.4434C44.649 58.8098 44.1266 58.3925 43.6204 58.4621C43.1472 58.6549 42.9034 59.2775 43.0732 59.9111Z" fill="#838487"/>
</g>
<g id="Group_123">
<path id="Vector_222" d="M43.2476 59.8644C43.3422 60.2177 43.6331 60.4504 43.9159 60.4112C43.9343 60.4083 43.9527 60.4054 43.9716 60.4003C44.2707 60.3202 44.4305 59.9505 44.3298 59.5745C44.229 59.1985 43.9048 58.9585 43.6067 59.0384C43.5888 59.0432 43.5701 59.0492 43.553 59.0568C43.2885 59.1642 43.1532 59.5121 43.2478 59.8654L43.2476 59.8644Z" fill="#493A35"/>
<path id="Vector_223" d="M43.2476 59.8649C43.3422 60.2182 43.6331 60.4509 43.9159 60.4116C44.1804 60.3042 44.3157 59.9563 44.2213 59.604C44.1269 59.2517 43.8357 59.018 43.5527 59.0563C43.2882 59.1637 43.1529 59.5116 43.2476 59.8649Z" fill="#281F1D"/>
</g>
</g>
</g>
<g id="Group_124">
<g id="Group_125">
<path id="Vector_224" d="M62.8817 85.0496L43.0429 90.3654L43.7789 93.112L63.6177 87.7963L62.8817 85.0496Z" fill="#575759"/>
<path id="Vector_225" d="M51.4366 88.1163L43.0429 90.3654L43.7528 93.0145L52.1465 90.7654L51.4366 88.1163Z" fill="#505154"/>
</g>
<g id="Vector_226" style="mix-blend-mode:color-dodge">
<path d="M62.8817 85.0496L43.0429 90.3654L43.2533 91.1506L63.0921 85.8348L62.8817 85.0496Z" fill="#575759"/>
</g>
</g>
</g>
</g>
</g>
</g>
<defs>
<clipPath id="clip0_108_1540">
<rect width="134.728" height="99.065" fill="white" transform="translate(0.214172 35.147) rotate(-15)"/>
</clipPath>
</defs>
</svg>
